<svg width="52" height="49" viewBox="0 0 52 49" fill="none" xmlns="http://www.w3.org/2000/svg">
<path d="M17.1777 16.324C21.6211 16.324 25.3281 12.6424 25.3281 8.19904C25.3281 3.78107 21.6211 0.0740356 17.1777 0.0740356C12.7598 0.0740356 9.05273 3.78107 9.05273 8.19904C9.05273 12.6424 12.7598 16.324 17.1777 16.324ZM34.9512 16.324C39.3945 16.324 43.0762 12.6424 43.0762 8.19904C43.0762 3.78107 39.3945 0.0740356 34.9512 0.0740356C30.5332 0.0740356 26.8262 3.78107 26.8262 8.19904C26.8262 12.6424 30.5332 16.324 34.9512 16.324ZM17.1777 12.2361C14.9941 12.2361 13.1406 10.3826 13.1406 8.19904C13.1406 6.01544 14.9941 4.16193 17.1777 4.16193C19.3867 4.16193 21.2402 6.01544 21.2402 8.19904C21.2402 10.3826 19.3867 12.2361 17.1777 12.2361ZM34.9512 12.2361C32.7676 12.2361 30.9141 10.3826 30.9141 8.19904C30.9141 6.01544 32.7676 4.16193 34.9512 4.16193C37.1602 4.16193 39.0137 6.01544 39.0137 8.19904C39.0137 10.3826 37.1602 12.2361 34.9512 12.2361ZM26.0645 32.244C30.5078 32.244 34.1895 28.5623 34.1895 24.119C34.1895 19.6756 30.5078 15.994 26.0645 15.994C21.6465 15.994 17.9395 19.6756 17.9395 24.119C17.9395 28.5623 21.6465 32.244 26.0645 32.244ZM8.31641 32.244C12.7344 32.244 16.4414 28.5623 16.4414 24.119C16.4414 19.701 12.7344 15.994 8.31641 15.994C3.87305 15.994 0.166016 19.701 0.166016 24.119C0.166016 28.5623 3.87305 32.244 8.31641 32.244ZM43.8379 32.244C48.2813 32.244 51.9629 28.5623 51.9629 24.119C51.9629 19.701 48.2813 15.994 43.8379 15.994C39.3945 15.994 35.7129 19.701 35.7129 24.119C35.7129 28.5623 39.3945 32.244 43.8379 32.244ZM26.0645 28.1815C23.8809 28.1815 22.0273 26.3279 22.0273 24.119C22.0273 21.91 23.8809 20.0818 26.0645 20.0818C28.2734 20.0818 30.127 21.91 30.127 24.119C30.127 26.3279 28.2734 28.1815 26.0645 28.1815ZM8.31641 28.1815C6.10742 28.1815 4.25391 26.3279 4.25391 24.119C4.25391 21.91 6.10742 20.0818 8.31641 20.0818C10.5 20.0818 12.3535 21.91 12.3535 24.119C12.3535 26.3279 10.5 28.1815 8.31641 28.1815ZM43.8379 28.1815C41.6289 28.1815 39.7754 26.3279 39.7754 24.119C39.7754 21.91 41.6289 20.0818 43.8379 20.0818C46.0469 20.0818 47.9004 21.91 47.9004 24.119C47.9004 26.3279 46.0469 28.1815 43.8379 28.1815ZM17.1777 48.1639C21.6211 48.1639 25.3281 44.4568 25.3281 40.0389C25.3281 35.5955 21.6211 31.9139 17.1777 31.9139C12.7598 31.9139 9.05273 35.5955 9.05273 40.0389C9.05273 44.4568 12.7598 48.1639 17.1777 48.1639ZM34.9512 48.1639C39.3945 48.1639 43.0762 44.4568 43.0762 40.0389C43.0762 35.5955 39.3945 31.9139 34.9512 31.9139C30.5332 31.9139 26.8262 35.5955 26.8262 40.0389C26.8262 44.4568 30.5332 48.1639 34.9512 48.1639ZM17.1777 44.076C14.9941 44.076 13.1406 42.2225 13.1406 40.0389C13.1406 37.8553 14.9941 36.0018 17.1777 36.0018C19.3867 36.0018 21.2402 37.8553 21.2402 40.0389C21.2402 42.2225 19.3867 44.076 17.1777 44.076ZM34.9512 44.076C32.7676 44.076 30.9141 42.2225 30.9141 40.0389C30.9141 37.8553 32.7676 36.0018 34.9512 36.0018C37.1602 36.0018 39.0137 37.8553 39.0137 40.0389C39.0137 42.2225 37.1602 44.076 34.9512 44.076Z" fill="#BD00FF"/>
</svg>
