<svg width="13" height="12" viewBox="0 0 13 12" fill="none" xmlns="http://www.w3.org/2000/svg">
<path d="M4.21289 4.09833C5.23828 4.09833 6.09375 3.24872 6.09375 2.22333C6.09375 1.2038 5.23828 0.348328 4.21289 0.348328C3.19336 0.348328 2.33789 1.2038 2.33789 2.22333C2.33789 3.24872 3.19336 4.09833 4.21289 4.09833ZM8.31445 4.09833C9.33984 4.09833 10.1895 3.24872 10.1895 2.22333C10.1895 1.2038 9.33984 0.348328 8.31445 0.348328C7.29492 0.348328 6.43945 1.2038 6.43945 2.22333C6.43945 3.24872 7.29492 4.09833 8.31445 4.09833ZM4.21289 3.15497C3.70898 3.15497 3.28125 2.72723 3.28125 2.22333C3.28125 1.71942 3.70898 1.29169 4.21289 1.29169C4.72266 1.29169 5.15039 1.71942 5.15039 2.22333C5.15039 2.72723 4.72266 3.15497 4.21289 3.15497ZM8.31445 3.15497C7.81055 3.15497 7.38281 2.72723 7.38281 2.22333C7.38281 1.71942 7.81055 1.29169 8.31445 1.29169C8.82422 1.29169 9.25195 1.71942 9.25195 2.22333C9.25195 2.72723 8.82422 3.15497 8.31445 3.15497ZM6.26367 7.77216C7.28906 7.77216 8.13867 6.92255 8.13867 5.89716C8.13867 4.87177 7.28906 4.02216 6.26367 4.02216C5.24414 4.02216 4.38867 4.87177 4.38867 5.89716C4.38867 6.92255 5.24414 7.77216 6.26367 7.77216ZM2.16797 7.77216C3.1875 7.77216 4.04297 6.92255 4.04297 5.89716C4.04297 4.87762 3.1875 4.02216 2.16797 4.02216C1.14258 4.02216 0.287109 4.87762 0.287109 5.89716C0.287109 6.92255 1.14258 7.77216 2.16797 7.77216ZM10.3652 7.77216C11.3906 7.77216 12.2402 6.92255 12.2402 5.89716C12.2402 4.87762 11.3906 4.02216 10.3652 4.02216C9.33984 4.02216 8.49023 4.87762 8.49023 5.89716C8.49023 6.92255 9.33984 7.77216 10.3652 7.77216ZM6.26367 6.83466C5.75977 6.83466 5.33203 6.40692 5.33203 5.89716C5.33203 5.38739 5.75977 4.96552 6.26367 4.96552C6.77344 4.96552 7.20117 5.38739 7.20117 5.89716C7.20117 6.40692 6.77344 6.83466 6.26367 6.83466ZM2.16797 6.83466C1.6582 6.83466 1.23047 6.40692 1.23047 5.89716C1.23047 5.38739 1.6582 4.96552 2.16797 4.96552C2.67188 4.96552 3.09961 5.38739 3.09961 5.89716C3.09961 6.40692 2.67188 6.83466 2.16797 6.83466ZM10.3652 6.83466C9.85547 6.83466 9.42773 6.40692 9.42773 5.89716C9.42773 5.38739 9.85547 4.96552 10.3652 4.96552C10.875 4.96552 11.3027 5.38739 11.3027 5.89716C11.3027 6.40692 10.875 6.83466 10.3652 6.83466ZM4.21289 11.446C5.23828 11.446 6.09375 10.5905 6.09375 9.57098C6.09375 8.54559 5.23828 7.69598 4.21289 7.69598C3.19336 7.69598 2.33789 8.54559 2.33789 9.57098C2.33789 10.5905 3.19336 11.446 4.21289 11.446ZM8.31445 11.446C9.33984 11.446 10.1895 10.5905 10.1895 9.57098C10.1895 8.54559 9.33984 7.69598 8.31445 7.69598C7.29492 7.69598 6.43945 8.54559 6.43945 9.57098C6.43945 10.5905 7.29492 11.446 8.31445 11.446ZM4.21289 10.5026C3.70898 10.5026 3.28125 10.0749 3.28125 9.57098C3.28125 9.06708 3.70898 8.63934 4.21289 8.63934C4.72266 8.63934 5.15039 9.06708 5.15039 9.57098C5.15039 10.0749 4.72266 10.5026 4.21289 10.5026ZM8.31445 10.5026C7.81055 10.5026 7.38281 10.0749 7.38281 9.57098C7.38281 9.06708 7.81055 8.63934 8.31445 8.63934C8.82422 8.63934 9.25195 9.06708 9.25195 9.57098C9.25195 10.0749 8.82422 10.5026 8.31445 10.5026Z" fill="#BD00FF"/>
</svg>
