<svg width="113" height="49" viewBox="0 0 113 49" fill="none" xmlns="http://www.w3.org/2000/svg">
<path d="M17.1348 16.324C21.5781 16.324 25.2852 12.6424 25.2852 8.19904C25.2852 3.78107 21.5781 0.0740356 17.1348 0.0740356C12.7168 0.0740356 9.00977 3.78107 9.00977 8.19904C9.00977 12.6424 12.7168 16.324 17.1348 16.324ZM34.9082 16.324C39.3516 16.324 43.0332 12.6424 43.0332 8.19904C43.0332 3.78107 39.3516 0.0740356 34.9082 0.0740356C30.4902 0.0740356 26.7832 3.78107 26.7832 8.19904C26.7832 12.6424 30.4902 16.324 34.9082 16.324ZM17.1348 12.2361C14.9512 12.2361 13.0977 10.3826 13.0977 8.19904C13.0977 6.01544 14.9512 4.16193 17.1348 4.16193C19.3438 4.16193 21.1973 6.01544 21.1973 8.19904C21.1973 10.3826 19.3438 12.2361 17.1348 12.2361ZM34.9082 12.2361C32.7246 12.2361 30.8711 10.3826 30.8711 8.19904C30.8711 6.01544 32.7246 4.16193 34.9082 4.16193C37.1172 4.16193 38.9707 6.01544 38.9707 8.19904C38.9707 10.3826 37.1172 12.2361 34.9082 12.2361ZM26.0215 32.244C30.4648 32.244 34.1465 28.5623 34.1465 24.119C34.1465 19.6756 30.4648 15.994 26.0215 15.994C21.6035 15.994 17.8965 19.6756 17.8965 24.119C17.8965 28.5623 21.6035 32.244 26.0215 32.244ZM8.27344 32.244C12.6914 32.244 16.3984 28.5623 16.3984 24.119C16.3984 19.701 12.6914 15.994 8.27344 15.994C3.83008 15.994 0.123047 19.701 0.123047 24.119C0.123047 28.5623 3.83008 32.244 8.27344 32.244ZM43.7949 32.244C48.2383 32.244 51.9199 28.5623 51.9199 24.119C51.9199 19.701 48.2383 15.994 43.7949 15.994C39.3516 15.994 35.6699 19.701 35.6699 24.119C35.6699 28.5623 39.3516 32.244 43.7949 32.244ZM26.0215 28.1815C23.8379 28.1815 21.9844 26.3279 21.9844 24.119C21.9844 21.91 23.8379 20.0818 26.0215 20.0818C28.2305 20.0818 30.084 21.91 30.084 24.119C30.084 26.3279 28.2305 28.1815 26.0215 28.1815ZM8.27344 28.1815C6.06445 28.1815 4.21094 26.3279 4.21094 24.119C4.21094 21.91 6.06445 20.0818 8.27344 20.0818C10.457 20.0818 12.3105 21.91 12.3105 24.119C12.3105 26.3279 10.457 28.1815 8.27344 28.1815ZM43.7949 28.1815C41.5859 28.1815 39.7324 26.3279 39.7324 24.119C39.7324 21.91 41.5859 20.0818 43.7949 20.0818C46.0039 20.0818 47.8574 21.91 47.8574 24.119C47.8574 26.3279 46.0039 28.1815 43.7949 28.1815ZM17.1348 48.1639C21.5781 48.1639 25.2852 44.4568 25.2852 40.0389C25.2852 35.5955 21.5781 31.9139 17.1348 31.9139C12.7168 31.9139 9.00977 35.5955 9.00977 40.0389C9.00977 44.4568 12.7168 48.1639 17.1348 48.1639ZM34.9082 48.1639C39.3516 48.1639 43.0332 44.4568 43.0332 40.0389C43.0332 35.5955 39.3516 31.9139 34.9082 31.9139C30.4902 31.9139 26.7832 35.5955 26.7832 40.0389C26.7832 44.4568 30.4902 48.1639 34.9082 48.1639ZM17.1348 44.076C14.9512 44.076 13.0977 42.2225 13.0977 40.0389C13.0977 37.8553 14.9512 36.0018 17.1348 36.0018C19.3438 36.0018 21.1973 37.8553 21.1973 40.0389C21.1973 42.2225 19.3438 44.076 17.1348 44.076ZM34.9082 44.076C32.7246 44.076 30.8711 42.2225 30.8711 40.0389C30.8711 37.8553 32.7246 36.0018 34.9082 36.0018C37.1172 36.0018 38.9707 37.8553 38.9707 40.0389C38.9707 42.2225 37.1172 44.076 34.9082 44.076Z" fill="#BD00FF"/>
<path d="M77.5645 16.324C82.0078 16.324 85.7149 12.6424 85.7149 8.19904C85.7149 3.78107 82.0078 0.0740356 77.5645 0.0740356C73.1465 0.0740356 69.4395 3.78107 69.4395 8.19904C69.4395 12.6424 73.1465 16.324 77.5645 16.324ZM95.3379 16.324C99.7813 16.324 103.463 12.6424 103.463 8.19904C103.463 3.78107 99.7813 0.0740356 95.3379 0.0740356C90.9199 0.0740356 87.2129 3.78107 87.2129 8.19904C87.2129 12.6424 90.9199 16.324 95.3379 16.324ZM77.5645 12.2361C75.3809 12.2361 73.5274 10.3826 73.5274 8.19904C73.5274 6.01544 75.3809 4.16193 77.5645 4.16193C79.7734 4.16193 81.627 6.01544 81.627 8.19904C81.627 10.3826 79.7734 12.2361 77.5645 12.2361ZM95.3379 12.2361C93.1543 12.2361 91.3008 10.3826 91.3008 8.19904C91.3008 6.01544 93.1543 4.16193 95.3379 4.16193C97.5469 4.16193 99.4004 6.01544 99.4004 8.19904C99.4004 10.3826 97.5469 12.2361 95.3379 12.2361ZM86.4512 32.244C90.8945 32.244 94.5762 28.5623 94.5762 24.119C94.5762 19.6756 90.8945 15.994 86.4512 15.994C82.0332 15.994 78.3262 19.6756 78.3262 24.119C78.3262 28.5623 82.0332 32.244 86.4512 32.244ZM68.7031 32.244C73.1211 32.244 76.8281 28.5623 76.8281 24.119C76.8281 19.701 73.1211 15.994 68.7031 15.994C64.2598 15.994 60.5527 19.701 60.5527 24.119C60.5527 28.5623 64.2598 32.244 68.7031 32.244ZM104.225 32.244C108.668 32.244 112.35 28.5623 112.35 24.119C112.35 19.701 108.668 15.994 104.225 15.994C99.7813 15.994 96.0996 19.701 96.0996 24.119C96.0996 28.5623 99.7813 32.244 104.225 32.244ZM86.4512 28.1815C84.2676 28.1815 82.4141 26.3279 82.4141 24.119C82.4141 21.91 84.2676 20.0818 86.4512 20.0818C88.6602 20.0818 90.5137 21.91 90.5137 24.119C90.5137 26.3279 88.6602 28.1815 86.4512 28.1815ZM68.7031 28.1815C66.4941 28.1815 64.6406 26.3279 64.6406 24.119C64.6406 21.91 66.4941 20.0818 68.7031 20.0818C70.8867 20.0818 72.7402 21.91 72.7402 24.119C72.7402 26.3279 70.8867 28.1815 68.7031 28.1815ZM104.225 28.1815C102.016 28.1815 100.162 26.3279 100.162 24.119C100.162 21.91 102.016 20.0818 104.225 20.0818C106.434 20.0818 108.287 21.91 108.287 24.119C108.287 26.3279 106.434 28.1815 104.225 28.1815ZM77.5645 48.1639C82.0078 48.1639 85.7149 44.4568 85.7149 40.0389C85.7149 35.5955 82.0078 31.9139 77.5645 31.9139C73.1465 31.9139 69.4395 35.5955 69.4395 40.0389C69.4395 44.4568 73.1465 48.1639 77.5645 48.1639ZM95.3379 48.1639C99.7813 48.1639 103.463 44.4568 103.463 40.0389C103.463 35.5955 99.7813 31.9139 95.3379 31.9139C90.9199 31.9139 87.2129 35.5955 87.2129 40.0389C87.2129 44.4568 90.9199 48.1639 95.3379 48.1639ZM77.5645 44.076C75.3809 44.076 73.5274 42.2225 73.5274 40.0389C73.5274 37.8553 75.3809 36.0018 77.5645 36.0018C79.7734 36.0018 81.627 37.8553 81.627 40.0389C81.627 42.2225 79.7734 44.076 77.5645 44.076ZM95.3379 44.076C93.1543 44.076 91.3008 42.2225 91.3008 40.0389C91.3008 37.8553 93.1543 36.0018 95.3379 36.0018C97.5469 36.0018 99.4004 37.8553 99.4004 40.0389C99.4004 42.2225 97.5469 44.076 95.3379 44.076Z" fill="#BD00FF"/>
</svg>
