<svg width="27" height="12" viewBox="0 0 27 12" fill="none" xmlns="http://www.w3.org/2000/svg">
<path d="M4.21289 4.39233C5.23828 4.39233 6.09375 3.54272 6.09375 2.51733C6.09375 1.4978 5.23828 0.642334 4.21289 0.642334C3.19336 0.642334 2.33789 1.4978 2.33789 2.51733C2.33789 3.54272 3.19336 4.39233 4.21289 4.39233ZM8.31445 4.39233C9.33984 4.39233 10.1895 3.54272 10.1895 2.51733C10.1895 1.4978 9.33984 0.642334 8.31445 0.642334C7.29492 0.642334 6.43945 1.4978 6.43945 2.51733C6.43945 3.54272 7.29492 4.39233 8.31445 4.39233ZM4.21289 3.44897C3.70898 3.44897 3.28125 3.02124 3.28125 2.51733C3.28125 2.01343 3.70898 1.58569 4.21289 1.58569C4.72266 1.58569 5.15039 2.01343 5.15039 2.51733C5.15039 3.02124 4.72266 3.44897 4.21289 3.44897ZM8.31445 3.44897C7.81055 3.44897 7.38281 3.02124 7.38281 2.51733C7.38281 2.01343 7.81055 1.58569 8.31445 1.58569C8.82422 1.58569 9.25195 2.01343 9.25195 2.51733C9.25195 3.02124 8.82422 3.44897 8.31445 3.44897ZM6.26367 8.06616C7.28906 8.06616 8.13867 7.21655 8.13867 6.19116C8.13867 5.16577 7.28906 4.31616 6.26367 4.31616C5.24414 4.31616 4.38867 5.16577 4.38867 6.19116C4.38867 7.21655 5.24414 8.06616 6.26367 8.06616ZM2.16797 8.06616C3.1875 8.06616 4.04297 7.21655 4.04297 6.19116C4.04297 5.17163 3.1875 4.31616 2.16797 4.31616C1.14258 4.31616 0.287109 5.17163 0.287109 6.19116C0.287109 7.21655 1.14258 8.06616 2.16797 8.06616ZM10.3652 8.06616C11.3906 8.06616 12.2402 7.21655 12.2402 6.19116C12.2402 5.17163 11.3906 4.31616 10.3652 4.31616C9.33984 4.31616 8.49023 5.17163 8.49023 6.19116C8.49023 7.21655 9.33984 8.06616 10.3652 8.06616ZM6.26367 7.12866C5.75977 7.12866 5.33203 6.70093 5.33203 6.19116C5.33203 5.6814 5.75977 5.25952 6.26367 5.25952C6.77344 5.25952 7.20117 5.6814 7.20117 6.19116C7.20117 6.70093 6.77344 7.12866 6.26367 7.12866ZM2.16797 7.12866C1.6582 7.12866 1.23047 6.70093 1.23047 6.19116C1.23047 5.6814 1.6582 5.25952 2.16797 5.25952C2.67188 5.25952 3.09961 5.6814 3.09961 6.19116C3.09961 6.70093 2.67188 7.12866 2.16797 7.12866ZM10.3652 7.12866C9.85547 7.12866 9.42773 6.70093 9.42773 6.19116C9.42773 5.6814 9.85547 5.25952 10.3652 5.25952C10.875 5.25952 11.3027 5.6814 11.3027 6.19116C11.3027 6.70093 10.875 7.12866 10.3652 7.12866ZM4.21289 11.74C5.23828 11.74 6.09375 10.8845 6.09375 9.86499C6.09375 8.8396 5.23828 7.98999 4.21289 7.98999C3.19336 7.98999 2.33789 8.8396 2.33789 9.86499C2.33789 10.8845 3.19336 11.74 4.21289 11.74ZM8.31445 11.74C9.33984 11.74 10.1895 10.8845 10.1895 9.86499C10.1895 8.8396 9.33984 7.98999 8.31445 7.98999C7.29492 7.98999 6.43945 8.8396 6.43945 9.86499C6.43945 10.8845 7.29492 11.74 8.31445 11.74ZM4.21289 10.7966C3.70898 10.7966 3.28125 10.3689 3.28125 9.86499C3.28125 9.36108 3.70898 8.93335 4.21289 8.93335C4.72266 8.93335 5.15039 9.36108 5.15039 9.86499C5.15039 10.3689 4.72266 10.7966 4.21289 10.7966ZM8.31445 10.7966C7.81055 10.7966 7.38281 10.3689 7.38281 9.86499C7.38281 9.36108 7.81055 8.93335 8.31445 8.93335C8.82422 8.93335 9.25195 9.36108 9.25195 9.86499C9.25195 10.3689 8.82422 10.7966 8.31445 10.7966Z" fill="#BD00FF"/>
<path d="M18.1582 4.39233C19.1836 4.39233 20.0391 3.54272 20.0391 2.51733C20.0391 1.4978 19.1836 0.642334 18.1582 0.642334C17.1387 0.642334 16.2832 1.4978 16.2832 2.51733C16.2832 3.54272 17.1387 4.39233 18.1582 4.39233ZM22.2598 4.39233C23.2852 4.39233 24.1348 3.54272 24.1348 2.51733C24.1348 1.4978 23.2852 0.642334 22.2598 0.642334C21.2402 0.642334 20.3848 1.4978 20.3848 2.51733C20.3848 3.54272 21.2402 4.39233 22.2598 4.39233ZM18.1582 3.44897C17.6543 3.44897 17.2266 3.02124 17.2266 2.51733C17.2266 2.01343 17.6543 1.58569 18.1582 1.58569C18.668 1.58569 19.0957 2.01343 19.0957 2.51733C19.0957 3.02124 18.668 3.44897 18.1582 3.44897ZM22.2598 3.44897C21.7559 3.44897 21.3281 3.02124 21.3281 2.51733C21.3281 2.01343 21.7559 1.58569 22.2598 1.58569C22.7695 1.58569 23.1973 2.01343 23.1973 2.51733C23.1973 3.02124 22.7695 3.44897 22.2598 3.44897ZM20.209 8.06616C21.2344 8.06616 22.084 7.21655 22.084 6.19116C22.084 5.16577 21.2344 4.31616 20.209 4.31616C19.1895 4.31616 18.334 5.16577 18.334 6.19116C18.334 7.21655 19.1895 8.06616 20.209 8.06616ZM16.1133 8.06616C17.1328 8.06616 17.9883 7.21655 17.9883 6.19116C17.9883 5.17163 17.1328 4.31616 16.1133 4.31616C15.0879 4.31616 14.2324 5.17163 14.2324 6.19116C14.2324 7.21655 15.0879 8.06616 16.1133 8.06616ZM24.3105 8.06616C25.3359 8.06616 26.1855 7.21655 26.1855 6.19116C26.1855 5.17163 25.3359 4.31616 24.3105 4.31616C23.2852 4.31616 22.4355 5.17163 22.4355 6.19116C22.4355 7.21655 23.2852 8.06616 24.3105 8.06616ZM20.209 7.12866C19.7051 7.12866 19.2773 6.70093 19.2773 6.19116C19.2773 5.6814 19.7051 5.25952 20.209 5.25952C20.7188 5.25952 21.1465 5.6814 21.1465 6.19116C21.1465 6.70093 20.7188 7.12866 20.209 7.12866ZM16.1133 7.12866C15.6035 7.12866 15.1758 6.70093 15.1758 6.19116C15.1758 5.6814 15.6035 5.25952 16.1133 5.25952C16.6172 5.25952 17.0449 5.6814 17.0449 6.19116C17.0449 6.70093 16.6172 7.12866 16.1133 7.12866ZM24.3105 7.12866C23.8008 7.12866 23.373 6.70093 23.373 6.19116C23.373 5.6814 23.8008 5.25952 24.3105 5.25952C24.8203 5.25952 25.248 5.6814 25.248 6.19116C25.248 6.70093 24.8203 7.12866 24.3105 7.12866ZM18.1582 11.74C19.1836 11.74 20.0391 10.8845 20.0391 9.86499C20.0391 8.8396 19.1836 7.98999 18.1582 7.98999C17.1387 7.98999 16.2832 8.8396 16.2832 9.86499C16.2832 10.8845 17.1387 11.74 18.1582 11.74ZM22.2598 11.74C23.2852 11.74 24.1348 10.8845 24.1348 9.86499C24.1348 8.8396 23.2852 7.98999 22.2598 7.98999C21.2402 7.98999 20.3848 8.8396 20.3848 9.86499C20.3848 10.8845 21.2402 11.74 22.2598 11.74ZM18.1582 10.7966C17.6543 10.7966 17.2266 10.3689 17.2266 9.86499C17.2266 9.36108 17.6543 8.93335 18.1582 8.93335C18.668 8.93335 19.0957 9.36108 19.0957 9.86499C19.0957 10.3689 18.668 10.7966 18.1582 10.7966ZM22.2598 10.7966C21.7559 10.7966 21.3281 10.3689 21.3281 9.86499C21.3281 9.36108 21.7559 8.93335 22.2598 8.93335C22.7695 8.93335 23.1973 9.36108 23.1973 9.86499C23.1973 10.3689 22.7695 10.7966 22.2598 10.7966Z" fill="#BD00FF"/>
</svg>
