<svg width="113" height="111" viewBox="0 0 113 111" fill="none" xmlns="http://www.w3.org/2000/svg">
<path d="M17.7461 16.324C22.1895 16.324 25.8965 12.6424 25.8965 8.19904C25.8965 3.78107 22.1895 0.0740356 17.7461 0.0740356C13.3281 0.0740356 9.62109 3.78107 9.62109 8.19904C9.62109 12.6424 13.3281 16.324 17.7461 16.324ZM35.5195 16.324C39.9629 16.324 43.6445 12.6424 43.6445 8.19904C43.6445 3.78107 39.9629 0.0740356 35.5195 0.0740356C31.1016 0.0740356 27.3945 3.78107 27.3945 8.19904C27.3945 12.6424 31.1016 16.324 35.5195 16.324ZM17.7461 12.2361C15.5625 12.2361 13.709 10.3826 13.709 8.19904C13.709 6.01544 15.5625 4.16193 17.7461 4.16193C19.9551 4.16193 21.8086 6.01544 21.8086 8.19904C21.8086 10.3826 19.9551 12.2361 17.7461 12.2361ZM35.5195 12.2361C33.3359 12.2361 31.4824 10.3826 31.4824 8.19904C31.4824 6.01544 33.3359 4.16193 35.5195 4.16193C37.7285 4.16193 39.582 6.01544 39.582 8.19904C39.582 10.3826 37.7285 12.2361 35.5195 12.2361ZM26.6328 32.244C31.0762 32.244 34.7578 28.5623 34.7578 24.119C34.7578 19.6756 31.0762 15.994 26.6328 15.994C22.2148 15.994 18.5078 19.6756 18.5078 24.119C18.5078 28.5623 22.2148 32.244 26.6328 32.244ZM8.88477 32.244C13.3027 32.244 17.0098 28.5623 17.0098 24.119C17.0098 19.701 13.3027 15.994 8.88477 15.994C4.44141 15.994 0.734375 19.701 0.734375 24.119C0.734375 28.5623 4.44141 32.244 8.88477 32.244ZM44.4062 32.244C48.8496 32.244 52.5312 28.5623 52.5312 24.119C52.5312 19.701 48.8496 15.994 44.4062 15.994C39.9629 15.994 36.2812 19.701 36.2812 24.119C36.2812 28.5623 39.9629 32.244 44.4062 32.244ZM26.6328 28.1815C24.4492 28.1815 22.5957 26.3279 22.5957 24.119C22.5957 21.91 24.4492 20.0818 26.6328 20.0818C28.8418 20.0818 30.6953 21.91 30.6953 24.119C30.6953 26.3279 28.8418 28.1815 26.6328 28.1815ZM8.88477 28.1815C6.67578 28.1815 4.82227 26.3279 4.82227 24.119C4.82227 21.91 6.67578 20.0818 8.88477 20.0818C11.0684 20.0818 12.9219 21.91 12.9219 24.119C12.9219 26.3279 11.0684 28.1815 8.88477 28.1815ZM44.4062 28.1815C42.1973 28.1815 40.3438 26.3279 40.3438 24.119C40.3438 21.91 42.1973 20.0818 44.4062 20.0818C46.6152 20.0818 48.4688 21.91 48.4688 24.119C48.4688 26.3279 46.6152 28.1815 44.4062 28.1815ZM17.7461 48.1639C22.1895 48.1639 25.8965 44.4568 25.8965 40.0389C25.8965 35.5955 22.1895 31.9139 17.7461 31.9139C13.3281 31.9139 9.62109 35.5955 9.62109 40.0389C9.62109 44.4568 13.3281 48.1639 17.7461 48.1639ZM35.5195 48.1639C39.9629 48.1639 43.6445 44.4568 43.6445 40.0389C43.6445 35.5955 39.9629 31.9139 35.5195 31.9139C31.1016 31.9139 27.3945 35.5955 27.3945 40.0389C27.3945 44.4568 31.1016 48.1639 35.5195 48.1639ZM17.7461 44.076C15.5625 44.076 13.709 42.2225 13.709 40.0389C13.709 37.8553 15.5625 36.0018 17.7461 36.0018C19.9551 36.0018 21.8086 37.8553 21.8086 40.0389C21.8086 42.2225 19.9551 44.076 17.7461 44.076ZM35.5195 44.076C33.3359 44.076 31.4824 42.2225 31.4824 40.0389C31.4824 37.8553 33.3359 36.0018 35.5195 36.0018C37.7285 36.0018 39.582 37.8553 39.582 40.0389C39.582 42.2225 37.7285 44.076 35.5195 44.076Z" fill="#BD00FF"/>
<path d="M78.1758 16.324C82.6191 16.324 86.3262 12.6424 86.3262 8.19904C86.3262 3.78107 82.6191 0.0740356 78.1758 0.0740356C73.7578 0.0740356 70.0508 3.78107 70.0508 8.19904C70.0508 12.6424 73.7578 16.324 78.1758 16.324ZM95.9492 16.324C100.393 16.324 104.074 12.6424 104.074 8.19904C104.074 3.78107 100.393 0.0740356 95.9492 0.0740356C91.5313 0.0740356 87.8242 3.78107 87.8242 8.19904C87.8242 12.6424 91.5313 16.324 95.9492 16.324ZM78.1758 12.2361C75.9922 12.2361 74.1387 10.3826 74.1387 8.19904C74.1387 6.01544 75.9922 4.16193 78.1758 4.16193C80.3848 4.16193 82.2383 6.01544 82.2383 8.19904C82.2383 10.3826 80.3848 12.2361 78.1758 12.2361ZM95.9492 12.2361C93.7656 12.2361 91.9121 10.3826 91.9121 8.19904C91.9121 6.01544 93.7656 4.16193 95.9492 4.16193C98.1582 4.16193 100.012 6.01544 100.012 8.19904C100.012 10.3826 98.1582 12.2361 95.9492 12.2361ZM87.0625 32.244C91.5059 32.244 95.1875 28.5623 95.1875 24.119C95.1875 19.6756 91.5059 15.994 87.0625 15.994C82.6445 15.994 78.9375 19.6756 78.9375 24.119C78.9375 28.5623 82.6445 32.244 87.0625 32.244ZM69.3145 32.244C73.7324 32.244 77.4395 28.5623 77.4395 24.119C77.4395 19.701 73.7324 15.994 69.3145 15.994C64.8711 15.994 61.1641 19.701 61.1641 24.119C61.1641 28.5623 64.8711 32.244 69.3145 32.244ZM104.836 32.244C109.279 32.244 112.961 28.5623 112.961 24.119C112.961 19.701 109.279 15.994 104.836 15.994C100.393 15.994 96.7109 19.701 96.7109 24.119C96.7109 28.5623 100.393 32.244 104.836 32.244ZM87.0625 28.1815C84.8789 28.1815 83.0254 26.3279 83.0254 24.119C83.0254 21.91 84.8789 20.0818 87.0625 20.0818C89.2715 20.0818 91.125 21.91 91.125 24.119C91.125 26.3279 89.2715 28.1815 87.0625 28.1815ZM69.3145 28.1815C67.1055 28.1815 65.252 26.3279 65.252 24.119C65.252 21.91 67.1055 20.0818 69.3145 20.0818C71.4981 20.0818 73.3516 21.91 73.3516 24.119C73.3516 26.3279 71.4981 28.1815 69.3145 28.1815ZM104.836 28.1815C102.627 28.1815 100.773 26.3279 100.773 24.119C100.773 21.91 102.627 20.0818 104.836 20.0818C107.045 20.0818 108.898 21.91 108.898 24.119C108.898 26.3279 107.045 28.1815 104.836 28.1815ZM78.1758 48.1639C82.6191 48.1639 86.3262 44.4568 86.3262 40.0389C86.3262 35.5955 82.6191 31.9139 78.1758 31.9139C73.7578 31.9139 70.0508 35.5955 70.0508 40.0389C70.0508 44.4568 73.7578 48.1639 78.1758 48.1639ZM95.9492 48.1639C100.393 48.1639 104.074 44.4568 104.074 40.0389C104.074 35.5955 100.393 31.9139 95.9492 31.9139C91.5313 31.9139 87.8242 35.5955 87.8242 40.0389C87.8242 44.4568 91.5313 48.1639 95.9492 48.1639ZM78.1758 44.076C75.9922 44.076 74.1387 42.2225 74.1387 40.0389C74.1387 37.8553 75.9922 36.0018 78.1758 36.0018C80.3848 36.0018 82.2383 37.8553 82.2383 40.0389C82.2383 42.2225 80.3848 44.076 78.1758 44.076ZM95.9492 44.076C93.7656 44.076 91.9121 42.2225 91.9121 40.0389C91.9121 37.8553 93.7656 36.0018 95.9492 36.0018C98.1582 36.0018 100.012 37.8553 100.012 40.0389C100.012 42.2225 98.1582 44.076 95.9492 44.076Z" fill="#BD00FF"/>
<path d="M47.9609 78.324C52.4043 78.324 56.1113 74.6424 56.1113 70.199C56.1113 65.7811 52.4043 62.074 47.9609 62.074C43.543 62.074 39.8359 65.7811 39.8359 70.199C39.8359 74.6424 43.543 78.324 47.9609 78.324ZM65.7344 78.324C70.1777 78.324 73.8594 74.6424 73.8594 70.199C73.8594 65.7811 70.1777 62.074 65.7344 62.074C61.3164 62.074 57.6094 65.7811 57.6094 70.199C57.6094 74.6424 61.3164 78.324 65.7344 78.324ZM47.9609 74.2361C45.7773 74.2361 43.9238 72.3826 43.9238 70.199C43.9238 68.0154 45.7773 66.1619 47.9609 66.1619C50.1699 66.1619 52.0234 68.0154 52.0234 70.199C52.0234 72.3826 50.1699 74.2361 47.9609 74.2361ZM65.7344 74.2361C63.5508 74.2361 61.6973 72.3826 61.6973 70.199C61.6973 68.0154 63.5508 66.1619 65.7344 66.1619C67.9434 66.1619 69.7969 68.0154 69.7969 70.199C69.7969 72.3826 67.9434 74.2361 65.7344 74.2361ZM56.8477 94.244C61.291 94.244 64.9727 90.5623 64.9727 86.119C64.9727 81.6756 61.291 77.994 56.8477 77.994C52.4297 77.994 48.7227 81.6756 48.7227 86.119C48.7227 90.5623 52.4297 94.244 56.8477 94.244ZM39.0996 94.244C43.5176 94.244 47.2246 90.5623 47.2246 86.119C47.2246 81.701 43.5176 77.994 39.0996 77.994C34.6562 77.994 30.9492 81.701 30.9492 86.119C30.9492 90.5623 34.6562 94.244 39.0996 94.244ZM74.6211 94.244C79.0645 94.244 82.7461 90.5623 82.7461 86.119C82.7461 81.701 79.0645 77.994 74.6211 77.994C70.1777 77.994 66.4961 81.701 66.4961 86.119C66.4961 90.5623 70.1777 94.244 74.6211 94.244ZM56.8477 90.1815C54.6641 90.1815 52.8105 88.3279 52.8105 86.119C52.8105 83.91 54.6641 82.0818 56.8477 82.0818C59.0566 82.0818 60.9102 83.91 60.9102 86.119C60.9102 88.3279 59.0566 90.1815 56.8477 90.1815ZM39.0996 90.1815C36.8906 90.1815 35.0371 88.3279 35.0371 86.119C35.0371 83.91 36.8906 82.0818 39.0996 82.0818C41.2832 82.0818 43.1367 83.91 43.1367 86.119C43.1367 88.3279 41.2832 90.1815 39.0996 90.1815ZM74.6211 90.1815C72.4121 90.1815 70.5586 88.3279 70.5586 86.119C70.5586 83.91 72.4121 82.0818 74.6211 82.0818C76.8301 82.0818 78.6836 83.91 78.6836 86.119C78.6836 88.3279 76.8301 90.1815 74.6211 90.1815ZM47.9609 110.164C52.4043 110.164 56.1113 106.457 56.1113 102.039C56.1113 97.5955 52.4043 93.9139 47.9609 93.9139C43.543 93.9139 39.8359 97.5955 39.8359 102.039C39.8359 106.457 43.543 110.164 47.9609 110.164ZM65.7344 110.164C70.1777 110.164 73.8594 106.457 73.8594 102.039C73.8594 97.5955 70.1777 93.9139 65.7344 93.9139C61.3164 93.9139 57.6094 97.5955 57.6094 102.039C57.6094 106.457 61.3164 110.164 65.7344 110.164ZM47.9609 106.076C45.7773 106.076 43.9238 104.222 43.9238 102.039C43.9238 99.8553 45.7773 98.0018 47.9609 98.0018C50.1699 98.0018 52.0234 99.8553 52.0234 102.039C52.0234 104.222 50.1699 106.076 47.9609 106.076ZM65.7344 106.076C63.5508 106.076 61.6973 104.222 61.6973 102.039C61.6973 99.8553 63.5508 98.0018 65.7344 98.0018C67.9434 98.0018 69.7969 99.8553 69.7969 102.039C69.7969 104.222 67.9434 106.076 65.7344 106.076Z" fill="#BD00FF"/>
</svg>
