<svg width="55" height="12" viewBox="0 0 55 12" fill="none" xmlns="http://www.w3.org/2000/svg">
<path d="M4.21289 4.49854C5.23828 4.49854 6.09375 3.64893 6.09375 2.62354C6.09375 1.604 5.23828 0.748535 4.21289 0.748535C3.19336 0.748535 2.33789 1.604 2.33789 2.62354C2.33789 3.64893 3.19336 4.49854 4.21289 4.49854ZM8.31445 4.49854C9.33984 4.49854 10.1895 3.64893 10.1895 2.62354C10.1895 1.604 9.33984 0.748535 8.31445 0.748535C7.29492 0.748535 6.43945 1.604 6.43945 2.62354C6.43945 3.64893 7.29492 4.49854 8.31445 4.49854ZM4.21289 3.55518C3.70898 3.55518 3.28125 3.12744 3.28125 2.62354C3.28125 2.11963 3.70898 1.69189 4.21289 1.69189C4.72266 1.69189 5.15039 2.11963 5.15039 2.62354C5.15039 3.12744 4.72266 3.55518 4.21289 3.55518ZM8.31445 3.55518C7.81055 3.55518 7.38281 3.12744 7.38281 2.62354C7.38281 2.11963 7.81055 1.69189 8.31445 1.69189C8.82422 1.69189 9.25195 2.11963 9.25195 2.62354C9.25195 3.12744 8.82422 3.55518 8.31445 3.55518ZM6.26367 8.17236C7.28906 8.17236 8.13867 7.32275 8.13867 6.29736C8.13867 5.27197 7.28906 4.42236 6.26367 4.42236C5.24414 4.42236 4.38867 5.27197 4.38867 6.29736C4.38867 7.32275 5.24414 8.17236 6.26367 8.17236ZM2.16797 8.17236C3.1875 8.17236 4.04297 7.32275 4.04297 6.29736C4.04297 5.27783 3.1875 4.42236 2.16797 4.42236C1.14258 4.42236 0.287109 5.27783 0.287109 6.29736C0.287109 7.32275 1.14258 8.17236 2.16797 8.17236ZM10.3652 8.17236C11.3906 8.17236 12.2402 7.32275 12.2402 6.29736C12.2402 5.27783 11.3906 4.42236 10.3652 4.42236C9.33984 4.42236 8.49023 5.27783 8.49023 6.29736C8.49023 7.32275 9.33984 8.17236 10.3652 8.17236ZM6.26367 7.23486C5.75977 7.23486 5.33203 6.80713 5.33203 6.29736C5.33203 5.7876 5.75977 5.36572 6.26367 5.36572C6.77344 5.36572 7.20117 5.7876 7.20117 6.29736C7.20117 6.80713 6.77344 7.23486 6.26367 7.23486ZM2.16797 7.23486C1.6582 7.23486 1.23047 6.80713 1.23047 6.29736C1.23047 5.7876 1.6582 5.36572 2.16797 5.36572C2.67188 5.36572 3.09961 5.7876 3.09961 6.29736C3.09961 6.80713 2.67188 7.23486 2.16797 7.23486ZM10.3652 7.23486C9.85547 7.23486 9.42773 6.80713 9.42773 6.29736C9.42773 5.7876 9.85547 5.36572 10.3652 5.36572C10.875 5.36572 11.3027 5.7876 11.3027 6.29736C11.3027 6.80713 10.875 7.23486 10.3652 7.23486ZM4.21289 11.8462C5.23828 11.8462 6.09375 10.9907 6.09375 9.97119C6.09375 8.9458 5.23828 8.09619 4.21289 8.09619C3.19336 8.09619 2.33789 8.9458 2.33789 9.97119C2.33789 10.9907 3.19336 11.8462 4.21289 11.8462ZM8.31445 11.8462C9.33984 11.8462 10.1895 10.9907 10.1895 9.97119C10.1895 8.9458 9.33984 8.09619 8.31445 8.09619C7.29492 8.09619 6.43945 8.9458 6.43945 9.97119C6.43945 10.9907 7.29492 11.8462 8.31445 11.8462ZM4.21289 10.9028C3.70898 10.9028 3.28125 10.4751 3.28125 9.97119C3.28125 9.46729 3.70898 9.03955 4.21289 9.03955C4.72266 9.03955 5.15039 9.46729 5.15039 9.97119C5.15039 10.4751 4.72266 10.9028 4.21289 10.9028ZM8.31445 10.9028C7.81055 10.9028 7.38281 10.4751 7.38281 9.97119C7.38281 9.46729 7.81055 9.03955 8.31445 9.03955C8.82422 9.03955 9.25195 9.46729 9.25195 9.97119C9.25195 10.4751 8.82422 10.9028 8.31445 10.9028Z" fill="#BD00FF"/>
<path d="M18.1582 4.49854C19.1836 4.49854 20.0391 3.64893 20.0391 2.62354C20.0391 1.604 19.1836 0.748535 18.1582 0.748535C17.1387 0.748535 16.2832 1.604 16.2832 2.62354C16.2832 3.64893 17.1387 4.49854 18.1582 4.49854ZM22.2598 4.49854C23.2852 4.49854 24.1348 3.64893 24.1348 2.62354C24.1348 1.604 23.2852 0.748535 22.2598 0.748535C21.2402 0.748535 20.3848 1.604 20.3848 2.62354C20.3848 3.64893 21.2402 4.49854 22.2598 4.49854ZM18.1582 3.55518C17.6543 3.55518 17.2266 3.12744 17.2266 2.62354C17.2266 2.11963 17.6543 1.69189 18.1582 1.69189C18.668 1.69189 19.0957 2.11963 19.0957 2.62354C19.0957 3.12744 18.668 3.55518 18.1582 3.55518ZM22.2598 3.55518C21.7559 3.55518 21.3281 3.12744 21.3281 2.62354C21.3281 2.11963 21.7559 1.69189 22.2598 1.69189C22.7695 1.69189 23.1973 2.11963 23.1973 2.62354C23.1973 3.12744 22.7695 3.55518 22.2598 3.55518ZM20.209 8.17236C21.2344 8.17236 22.084 7.32275 22.084 6.29736C22.084 5.27197 21.2344 4.42236 20.209 4.42236C19.1895 4.42236 18.334 5.27197 18.334 6.29736C18.334 7.32275 19.1895 8.17236 20.209 8.17236ZM16.1133 8.17236C17.1328 8.17236 17.9883 7.32275 17.9883 6.29736C17.9883 5.27783 17.1328 4.42236 16.1133 4.42236C15.0879 4.42236 14.2324 5.27783 14.2324 6.29736C14.2324 7.32275 15.0879 8.17236 16.1133 8.17236ZM24.3105 8.17236C25.3359 8.17236 26.1855 7.32275 26.1855 6.29736C26.1855 5.27783 25.3359 4.42236 24.3105 4.42236C23.2852 4.42236 22.4355 5.27783 22.4355 6.29736C22.4355 7.32275 23.2852 8.17236 24.3105 8.17236ZM20.209 7.23486C19.7051 7.23486 19.2773 6.80713 19.2773 6.29736C19.2773 5.7876 19.7051 5.36572 20.209 5.36572C20.7188 5.36572 21.1465 5.7876 21.1465 6.29736C21.1465 6.80713 20.7188 7.23486 20.209 7.23486ZM16.1133 7.23486C15.6035 7.23486 15.1758 6.80713 15.1758 6.29736C15.1758 5.7876 15.6035 5.36572 16.1133 5.36572C16.6172 5.36572 17.0449 5.7876 17.0449 6.29736C17.0449 6.80713 16.6172 7.23486 16.1133 7.23486ZM24.3105 7.23486C23.8008 7.23486 23.373 6.80713 23.373 6.29736C23.373 5.7876 23.8008 5.36572 24.3105 5.36572C24.8203 5.36572 25.248 5.7876 25.248 6.29736C25.248 6.80713 24.8203 7.23486 24.3105 7.23486ZM18.1582 11.8462C19.1836 11.8462 20.0391 10.9907 20.0391 9.97119C20.0391 8.9458 19.1836 8.09619 18.1582 8.09619C17.1387 8.09619 16.2832 8.9458 16.2832 9.97119C16.2832 10.9907 17.1387 11.8462 18.1582 11.8462ZM22.2598 11.8462C23.2852 11.8462 24.1348 10.9907 24.1348 9.97119C24.1348 8.9458 23.2852 8.09619 22.2598 8.09619C21.2402 8.09619 20.3848 8.9458 20.3848 9.97119C20.3848 10.9907 21.2402 11.8462 22.2598 11.8462ZM18.1582 10.9028C17.6543 10.9028 17.2266 10.4751 17.2266 9.97119C17.2266 9.46729 17.6543 9.03955 18.1582 9.03955C18.668 9.03955 19.0957 9.46729 19.0957 9.97119C19.0957 10.4751 18.668 10.9028 18.1582 10.9028ZM22.2598 10.9028C21.7559 10.9028 21.3281 10.4751 21.3281 9.97119C21.3281 9.46729 21.7559 9.03955 22.2598 9.03955C22.7695 9.03955 23.1973 9.46729 23.1973 9.97119C23.1973 10.4751 22.7695 10.9028 22.2598 10.9028Z" fill="#BD00FF"/>
<path d="M32.1035 4.49854C33.1289 4.49854 33.9844 3.64893 33.9844 2.62354C33.9844 1.604 33.1289 0.748535 32.1035 0.748535C31.084 0.748535 30.2285 1.604 30.2285 2.62354C30.2285 3.64893 31.084 4.49854 32.1035 4.49854ZM36.2051 4.49854C37.2305 4.49854 38.0801 3.64893 38.0801 2.62354C38.0801 1.604 37.2305 0.748535 36.2051 0.748535C35.1855 0.748535 34.3301 1.604 34.3301 2.62354C34.3301 3.64893 35.1855 4.49854 36.2051 4.49854ZM32.1035 3.55518C31.5996 3.55518 31.1719 3.12744 31.1719 2.62354C31.1719 2.11963 31.5996 1.69189 32.1035 1.69189C32.6133 1.69189 33.041 2.11963 33.041 2.62354C33.041 3.12744 32.6133 3.55518 32.1035 3.55518ZM36.2051 3.55518C35.7012 3.55518 35.2734 3.12744 35.2734 2.62354C35.2734 2.11963 35.7012 1.69189 36.2051 1.69189C36.7148 1.69189 37.1426 2.11963 37.1426 2.62354C37.1426 3.12744 36.7148 3.55518 36.2051 3.55518ZM34.1543 8.17236C35.1797 8.17236 36.0293 7.32275 36.0293 6.29736C36.0293 5.27197 35.1797 4.42236 34.1543 4.42236C33.1348 4.42236 32.2793 5.27197 32.2793 6.29736C32.2793 7.32275 33.1348 8.17236 34.1543 8.17236ZM30.0586 8.17236C31.0781 8.17236 31.9336 7.32275 31.9336 6.29736C31.9336 5.27783 31.0781 4.42236 30.0586 4.42236C29.0332 4.42236 28.1777 5.27783 28.1777 6.29736C28.1777 7.32275 29.0332 8.17236 30.0586 8.17236ZM38.2559 8.17236C39.2812 8.17236 40.1309 7.32275 40.1309 6.29736C40.1309 5.27783 39.2812 4.42236 38.2559 4.42236C37.2305 4.42236 36.3809 5.27783 36.3809 6.29736C36.3809 7.32275 37.2305 8.17236 38.2559 8.17236ZM34.1543 7.23486C33.6504 7.23486 33.2227 6.80713 33.2227 6.29736C33.2227 5.7876 33.6504 5.36572 34.1543 5.36572C34.6641 5.36572 35.0918 5.7876 35.0918 6.29736C35.0918 6.80713 34.6641 7.23486 34.1543 7.23486ZM30.0586 7.23486C29.5488 7.23486 29.1211 6.80713 29.1211 6.29736C29.1211 5.7876 29.5488 5.36572 30.0586 5.36572C30.5625 5.36572 30.9902 5.7876 30.9902 6.29736C30.9902 6.80713 30.5625 7.23486 30.0586 7.23486ZM38.2559 7.23486C37.7461 7.23486 37.3184 6.80713 37.3184 6.29736C37.3184 5.7876 37.7461 5.36572 38.2559 5.36572C38.7656 5.36572 39.1934 5.7876 39.1934 6.29736C39.1934 6.80713 38.7656 7.23486 38.2559 7.23486ZM32.1035 11.8462C33.1289 11.8462 33.9844 10.9907 33.9844 9.97119C33.9844 8.9458 33.1289 8.09619 32.1035 8.09619C31.084 8.09619 30.2285 8.9458 30.2285 9.97119C30.2285 10.9907 31.084 11.8462 32.1035 11.8462ZM36.2051 11.8462C37.2305 11.8462 38.0801 10.9907 38.0801 9.97119C38.0801 8.9458 37.2305 8.09619 36.2051 8.09619C35.1855 8.09619 34.3301 8.9458 34.3301 9.97119C34.3301 10.9907 35.1855 11.8462 36.2051 11.8462ZM32.1035 10.9028C31.5996 10.9028 31.1719 10.4751 31.1719 9.97119C31.1719 9.46729 31.5996 9.03955 32.1035 9.03955C32.6133 9.03955 33.041 9.46729 33.041 9.97119C33.041 10.4751 32.6133 10.9028 32.1035 10.9028ZM36.2051 10.9028C35.7012 10.9028 35.2734 10.4751 35.2734 9.97119C35.2734 9.46729 35.7012 9.03955 36.2051 9.03955C36.7148 9.03955 37.1426 9.46729 37.1426 9.97119C37.1426 10.4751 36.7148 10.9028 36.2051 10.9028Z" fill="#BD00FF"/>
<path d="M46.0488 4.49854C47.0742 4.49854 47.9297 3.64893 47.9297 2.62354C47.9297 1.604 47.0742 0.748535 46.0488 0.748535C45.0293 0.748535 44.1738 1.604 44.1738 2.62354C44.1738 3.64893 45.0293 4.49854 46.0488 4.49854ZM50.1504 4.49854C51.1758 4.49854 52.0254 3.64893 52.0254 2.62354C52.0254 1.604 51.1758 0.748535 50.1504 0.748535C49.1309 0.748535 48.2754 1.604 48.2754 2.62354C48.2754 3.64893 49.1309 4.49854 50.1504 4.49854ZM46.0488 3.55518C45.5449 3.55518 45.1172 3.12744 45.1172 2.62354C45.1172 2.11963 45.5449 1.69189 46.0488 1.69189C46.5586 1.69189 46.9863 2.11963 46.9863 2.62354C46.9863 3.12744 46.5586 3.55518 46.0488 3.55518ZM50.1504 3.55518C49.6465 3.55518 49.2188 3.12744 49.2188 2.62354C49.2188 2.11963 49.6465 1.69189 50.1504 1.69189C50.6602 1.69189 51.0879 2.11963 51.0879 2.62354C51.0879 3.12744 50.6602 3.55518 50.1504 3.55518ZM48.0996 8.17236C49.125 8.17236 49.9746 7.32275 49.9746 6.29736C49.9746 5.27197 49.125 4.42236 48.0996 4.42236C47.0801 4.42236 46.2246 5.27197 46.2246 6.29736C46.2246 7.32275 47.0801 8.17236 48.0996 8.17236ZM44.0039 8.17236C45.0234 8.17236 45.8789 7.32275 45.8789 6.29736C45.8789 5.27783 45.0234 4.42236 44.0039 4.42236C42.9785 4.42236 42.123 5.27783 42.123 6.29736C42.123 7.32275 42.9785 8.17236 44.0039 8.17236ZM52.2012 8.17236C53.2266 8.17236 54.0762 7.32275 54.0762 6.29736C54.0762 5.27783 53.2266 4.42236 52.2012 4.42236C51.1758 4.42236 50.3262 5.27783 50.3262 6.29736C50.3262 7.32275 51.1758 8.17236 52.2012 8.17236ZM48.0996 7.23486C47.5957 7.23486 47.168 6.80713 47.168 6.29736C47.168 5.7876 47.5957 5.36572 48.0996 5.36572C48.6094 5.36572 49.0371 5.7876 49.0371 6.29736C49.0371 6.80713 48.6094 7.23486 48.0996 7.23486ZM44.0039 7.23486C43.4941 7.23486 43.0664 6.80713 43.0664 6.29736C43.0664 5.7876 43.4941 5.36572 44.0039 5.36572C44.5078 5.36572 44.9355 5.7876 44.9355 6.29736C44.9355 6.80713 44.5078 7.23486 44.0039 7.23486ZM52.2012 7.23486C51.6914 7.23486 51.2637 6.80713 51.2637 6.29736C51.2637 5.7876 51.6914 5.36572 52.2012 5.36572C52.7109 5.36572 53.1387 5.7876 53.1387 6.29736C53.1387 6.80713 52.7109 7.23486 52.2012 7.23486ZM46.0488 11.8462C47.0742 11.8462 47.9297 10.9907 47.9297 9.97119C47.9297 8.9458 47.0742 8.09619 46.0488 8.09619C45.0293 8.09619 44.1738 8.9458 44.1738 9.97119C44.1738 10.9907 45.0293 11.8462 46.0488 11.8462ZM50.1504 11.8462C51.1758 11.8462 52.0254 10.9907 52.0254 9.97119C52.0254 8.9458 51.1758 8.09619 50.1504 8.09619C49.1309 8.09619 48.2754 8.9458 48.2754 9.97119C48.2754 10.9907 49.1309 11.8462 50.1504 11.8462ZM46.0488 10.9028C45.5449 10.9028 45.1172 10.4751 45.1172 9.97119C45.1172 9.46729 45.5449 9.03955 46.0488 9.03955C46.5586 9.03955 46.9863 9.46729 46.9863 9.97119C46.9863 10.4751 46.5586 10.9028 46.0488 10.9028ZM50.1504 10.9028C49.6465 10.9028 49.2188 10.4751 49.2188 9.97119C49.2188 9.46729 49.6465 9.03955 50.1504 9.03955C50.6602 9.03955 51.0879 9.46729 51.0879 9.97119C51.0879 10.4751 50.6602 10.9028 50.1504 10.9028Z" fill="#BD00FF"/>
</svg>
