<svg width="113" height="111" viewBox="0 0 113 111" fill="none" xmlns="http://www.w3.org/2000/svg">
<path d="M17.3574 16.324C21.8008 16.324 25.5078 12.6424 25.5078 8.19904C25.5078 3.78107 21.8008 0.0740356 17.3574 0.0740356C12.9395 0.0740356 9.23242 3.78107 9.23242 8.19904C9.23242 12.6424 12.9395 16.324 17.3574 16.324ZM35.1309 16.324C39.5742 16.324 43.2559 12.6424 43.2559 8.19904C43.2559 3.78107 39.5742 0.0740356 35.1309 0.0740356C30.7129 0.0740356 27.0059 3.78107 27.0059 8.19904C27.0059 12.6424 30.7129 16.324 35.1309 16.324ZM17.3574 12.2361C15.1738 12.2361 13.3203 10.3826 13.3203 8.19904C13.3203 6.01544 15.1738 4.16193 17.3574 4.16193C19.5664 4.16193 21.4199 6.01544 21.4199 8.19904C21.4199 10.3826 19.5664 12.2361 17.3574 12.2361ZM35.1309 12.2361C32.9473 12.2361 31.0938 10.3826 31.0938 8.19904C31.0938 6.01544 32.9473 4.16193 35.1309 4.16193C37.3398 4.16193 39.1934 6.01544 39.1934 8.19904C39.1934 10.3826 37.3398 12.2361 35.1309 12.2361ZM26.2441 32.244C30.6875 32.244 34.3691 28.5623 34.3691 24.119C34.3691 19.6756 30.6875 15.994 26.2441 15.994C21.8262 15.994 18.1191 19.6756 18.1191 24.119C18.1191 28.5623 21.8262 32.244 26.2441 32.244ZM8.49609 32.244C12.9141 32.244 16.6211 28.5623 16.6211 24.119C16.6211 19.701 12.9141 15.994 8.49609 15.994C4.05273 15.994 0.345703 19.701 0.345703 24.119C0.345703 28.5623 4.05273 32.244 8.49609 32.244ZM44.0176 32.244C48.4609 32.244 52.1426 28.5623 52.1426 24.119C52.1426 19.701 48.4609 15.994 44.0176 15.994C39.5742 15.994 35.8926 19.701 35.8926 24.119C35.8926 28.5623 39.5742 32.244 44.0176 32.244ZM26.2441 28.1815C24.0605 28.1815 22.207 26.3279 22.207 24.119C22.207 21.91 24.0605 20.0818 26.2441 20.0818C28.4531 20.0818 30.3066 21.91 30.3066 24.119C30.3066 26.3279 28.4531 28.1815 26.2441 28.1815ZM8.49609 28.1815C6.28711 28.1815 4.43359 26.3279 4.43359 24.119C4.43359 21.91 6.28711 20.0818 8.49609 20.0818C10.6797 20.0818 12.5332 21.91 12.5332 24.119C12.5332 26.3279 10.6797 28.1815 8.49609 28.1815ZM44.0176 28.1815C41.8086 28.1815 39.9551 26.3279 39.9551 24.119C39.9551 21.91 41.8086 20.0818 44.0176 20.0818C46.2266 20.0818 48.0801 21.91 48.0801 24.119C48.0801 26.3279 46.2266 28.1815 44.0176 28.1815ZM17.3574 48.1639C21.8008 48.1639 25.5078 44.4568 25.5078 40.0389C25.5078 35.5955 21.8008 31.9139 17.3574 31.9139C12.9395 31.9139 9.23242 35.5955 9.23242 40.0389C9.23242 44.4568 12.9395 48.1639 17.3574 48.1639ZM35.1309 48.1639C39.5742 48.1639 43.2559 44.4568 43.2559 40.0389C43.2559 35.5955 39.5742 31.9139 35.1309 31.9139C30.7129 31.9139 27.0059 35.5955 27.0059 40.0389C27.0059 44.4568 30.7129 48.1639 35.1309 48.1639ZM17.3574 44.076C15.1738 44.076 13.3203 42.2225 13.3203 40.0389C13.3203 37.8553 15.1738 36.0018 17.3574 36.0018C19.5664 36.0018 21.4199 37.8553 21.4199 40.0389C21.4199 42.2225 19.5664 44.076 17.3574 44.076ZM35.1309 44.076C32.9473 44.076 31.0938 42.2225 31.0938 40.0389C31.0938 37.8553 32.9473 36.0018 35.1309 36.0018C37.3398 36.0018 39.1934 37.8553 39.1934 40.0389C39.1934 42.2225 37.3398 44.076 35.1309 44.076Z" fill="#BD00FF"/>
<path d="M77.7871 16.324C82.2305 16.324 85.9375 12.6424 85.9375 8.19904C85.9375 3.78107 82.2305 0.0740356 77.7871 0.0740356C73.3691 0.0740356 69.6621 3.78107 69.6621 8.19904C69.6621 12.6424 73.3691 16.324 77.7871 16.324ZM95.5605 16.324C100.004 16.324 103.686 12.6424 103.686 8.19904C103.686 3.78107 100.004 0.0740356 95.5605 0.0740356C91.1426 0.0740356 87.4355 3.78107 87.4355 8.19904C87.4355 12.6424 91.1426 16.324 95.5605 16.324ZM77.7871 12.2361C75.6035 12.2361 73.75 10.3826 73.75 8.19904C73.75 6.01544 75.6035 4.16193 77.7871 4.16193C79.9961 4.16193 81.8496 6.01544 81.8496 8.19904C81.8496 10.3826 79.9961 12.2361 77.7871 12.2361ZM95.5605 12.2361C93.377 12.2361 91.5234 10.3826 91.5234 8.19904C91.5234 6.01544 93.377 4.16193 95.5605 4.16193C97.7695 4.16193 99.623 6.01544 99.623 8.19904C99.623 10.3826 97.7695 12.2361 95.5605 12.2361ZM86.6738 32.244C91.1172 32.244 94.7988 28.5623 94.7988 24.119C94.7988 19.6756 91.1172 15.994 86.6738 15.994C82.2559 15.994 78.5488 19.6756 78.5488 24.119C78.5488 28.5623 82.2559 32.244 86.6738 32.244ZM68.9258 32.244C73.3438 32.244 77.0508 28.5623 77.0508 24.119C77.0508 19.701 73.3438 15.994 68.9258 15.994C64.4824 15.994 60.7754 19.701 60.7754 24.119C60.7754 28.5623 64.4824 32.244 68.9258 32.244ZM104.447 32.244C108.891 32.244 112.572 28.5623 112.572 24.119C112.572 19.701 108.891 15.994 104.447 15.994C100.004 15.994 96.3223 19.701 96.3223 24.119C96.3223 28.5623 100.004 32.244 104.447 32.244ZM86.6738 28.1815C84.4902 28.1815 82.6367 26.3279 82.6367 24.119C82.6367 21.91 84.4902 20.0818 86.6738 20.0818C88.8828 20.0818 90.7363 21.91 90.7363 24.119C90.7363 26.3279 88.8828 28.1815 86.6738 28.1815ZM68.9258 28.1815C66.7168 28.1815 64.8633 26.3279 64.8633 24.119C64.8633 21.91 66.7168 20.0818 68.9258 20.0818C71.1094 20.0818 72.9629 21.91 72.9629 24.119C72.9629 26.3279 71.1094 28.1815 68.9258 28.1815ZM104.447 28.1815C102.238 28.1815 100.385 26.3279 100.385 24.119C100.385 21.91 102.238 20.0818 104.447 20.0818C106.656 20.0818 108.51 21.91 108.51 24.119C108.51 26.3279 106.656 28.1815 104.447 28.1815ZM77.7871 48.1639C82.2305 48.1639 85.9375 44.4568 85.9375 40.0389C85.9375 35.5955 82.2305 31.9139 77.7871 31.9139C73.3691 31.9139 69.6621 35.5955 69.6621 40.0389C69.6621 44.4568 73.3691 48.1639 77.7871 48.1639ZM95.5605 48.1639C100.004 48.1639 103.686 44.4568 103.686 40.0389C103.686 35.5955 100.004 31.9139 95.5605 31.9139C91.1426 31.9139 87.4355 35.5955 87.4355 40.0389C87.4355 44.4568 91.1426 48.1639 95.5605 48.1639ZM77.7871 44.076C75.6035 44.076 73.75 42.2225 73.75 40.0389C73.75 37.8553 75.6035 36.0018 77.7871 36.0018C79.9961 36.0018 81.8496 37.8553 81.8496 40.0389C81.8496 42.2225 79.9961 44.076 77.7871 44.076ZM95.5605 44.076C93.377 44.076 91.5234 42.2225 91.5234 40.0389C91.5234 37.8553 93.377 36.0018 95.5605 36.0018C97.7695 36.0018 99.623 37.8553 99.623 40.0389C99.623 42.2225 97.7695 44.076 95.5605 44.076Z" fill="#BD00FF"/>
<path d="M17.3574 78.324C21.8008 78.324 25.5078 74.6424 25.5078 70.199C25.5078 65.7811 21.8008 62.074 17.3574 62.074C12.9395 62.074 9.23242 65.7811 9.23242 70.199C9.23242 74.6424 12.9395 78.324 17.3574 78.324ZM35.1309 78.324C39.5742 78.324 43.2559 74.6424 43.2559 70.199C43.2559 65.7811 39.5742 62.074 35.1309 62.074C30.7129 62.074 27.0059 65.7811 27.0059 70.199C27.0059 74.6424 30.7129 78.324 35.1309 78.324ZM17.3574 74.2361C15.1738 74.2361 13.3203 72.3826 13.3203 70.199C13.3203 68.0154 15.1738 66.1619 17.3574 66.1619C19.5664 66.1619 21.4199 68.0154 21.4199 70.199C21.4199 72.3826 19.5664 74.2361 17.3574 74.2361ZM35.1309 74.2361C32.9473 74.2361 31.0938 72.3826 31.0938 70.199C31.0938 68.0154 32.9473 66.1619 35.1309 66.1619C37.3398 66.1619 39.1934 68.0154 39.1934 70.199C39.1934 72.3826 37.3398 74.2361 35.1309 74.2361ZM26.2441 94.244C30.6875 94.244 34.3691 90.5623 34.3691 86.119C34.3691 81.6756 30.6875 77.994 26.2441 77.994C21.8262 77.994 18.1191 81.6756 18.1191 86.119C18.1191 90.5623 21.8262 94.244 26.2441 94.244ZM8.49609 94.244C12.9141 94.244 16.6211 90.5623 16.6211 86.119C16.6211 81.701 12.9141 77.994 8.49609 77.994C4.05273 77.994 0.345703 81.701 0.345703 86.119C0.345703 90.5623 4.05273 94.244 8.49609 94.244ZM44.0176 94.244C48.4609 94.244 52.1426 90.5623 52.1426 86.119C52.1426 81.701 48.4609 77.994 44.0176 77.994C39.5742 77.994 35.8926 81.701 35.8926 86.119C35.8926 90.5623 39.5742 94.244 44.0176 94.244ZM26.2441 90.1815C24.0605 90.1815 22.207 88.3279 22.207 86.119C22.207 83.91 24.0605 82.0818 26.2441 82.0818C28.4531 82.0818 30.3066 83.91 30.3066 86.119C30.3066 88.3279 28.4531 90.1815 26.2441 90.1815ZM8.49609 90.1815C6.28711 90.1815 4.43359 88.3279 4.43359 86.119C4.43359 83.91 6.28711 82.0818 8.49609 82.0818C10.6797 82.0818 12.5332 83.91 12.5332 86.119C12.5332 88.3279 10.6797 90.1815 8.49609 90.1815ZM44.0176 90.1815C41.8086 90.1815 39.9551 88.3279 39.9551 86.119C39.9551 83.91 41.8086 82.0818 44.0176 82.0818C46.2266 82.0818 48.0801 83.91 48.0801 86.119C48.0801 88.3279 46.2266 90.1815 44.0176 90.1815ZM17.3574 110.164C21.8008 110.164 25.5078 106.457 25.5078 102.039C25.5078 97.5955 21.8008 93.9139 17.3574 93.9139C12.9395 93.9139 9.23242 97.5955 9.23242 102.039C9.23242 106.457 12.9395 110.164 17.3574 110.164ZM35.1309 110.164C39.5742 110.164 43.2559 106.457 43.2559 102.039C43.2559 97.5955 39.5742 93.9139 35.1309 93.9139C30.7129 93.9139 27.0059 97.5955 27.0059 102.039C27.0059 106.457 30.7129 110.164 35.1309 110.164ZM17.3574 106.076C15.1738 106.076 13.3203 104.222 13.3203 102.039C13.3203 99.8553 15.1738 98.0018 17.3574 98.0018C19.5664 98.0018 21.4199 99.8553 21.4199 102.039C21.4199 104.222 19.5664 106.076 17.3574 106.076ZM35.1309 106.076C32.9473 106.076 31.0938 104.222 31.0938 102.039C31.0938 99.8553 32.9473 98.0018 35.1309 98.0018C37.3398 98.0018 39.1934 99.8553 39.1934 102.039C39.1934 104.222 37.3398 106.076 35.1309 106.076Z" fill="#BD00FF"/>
<path d="M77.7871 78.324C82.2305 78.324 85.9375 74.6424 85.9375 70.199C85.9375 65.7811 82.2305 62.074 77.7871 62.074C73.3691 62.074 69.6621 65.7811 69.6621 70.199C69.6621 74.6424 73.3691 78.324 77.7871 78.324ZM95.5605 78.324C100.004 78.324 103.686 74.6424 103.686 70.199C103.686 65.7811 100.004 62.074 95.5605 62.074C91.1426 62.074 87.4355 65.7811 87.4355 70.199C87.4355 74.6424 91.1426 78.324 95.5605 78.324ZM77.7871 74.2361C75.6035 74.2361 73.75 72.3826 73.75 70.199C73.75 68.0154 75.6035 66.1619 77.7871 66.1619C79.9961 66.1619 81.8496 68.0154 81.8496 70.199C81.8496 72.3826 79.9961 74.2361 77.7871 74.2361ZM95.5605 74.2361C93.377 74.2361 91.5234 72.3826 91.5234 70.199C91.5234 68.0154 93.377 66.1619 95.5605 66.1619C97.7695 66.1619 99.623 68.0154 99.623 70.199C99.623 72.3826 97.7695 74.2361 95.5605 74.2361ZM86.6738 94.244C91.1172 94.244 94.7988 90.5623 94.7988 86.119C94.7988 81.6756 91.1172 77.994 86.6738 77.994C82.2559 77.994 78.5488 81.6756 78.5488 86.119C78.5488 90.5623 82.2559 94.244 86.6738 94.244ZM68.9258 94.244C73.3438 94.244 77.0508 90.5623 77.0508 86.119C77.0508 81.701 73.3438 77.994 68.9258 77.994C64.4824 77.994 60.7754 81.701 60.7754 86.119C60.7754 90.5623 64.4824 94.244 68.9258 94.244ZM104.447 94.244C108.891 94.244 112.572 90.5623 112.572 86.119C112.572 81.701 108.891 77.994 104.447 77.994C100.004 77.994 96.3223 81.701 96.3223 86.119C96.3223 90.5623 100.004 94.244 104.447 94.244ZM86.6738 90.1815C84.4902 90.1815 82.6367 88.3279 82.6367 86.119C82.6367 83.91 84.4902 82.0818 86.6738 82.0818C88.8828 82.0818 90.7363 83.91 90.7363 86.119C90.7363 88.3279 88.8828 90.1815 86.6738 90.1815ZM68.9258 90.1815C66.7168 90.1815 64.8633 88.3279 64.8633 86.119C64.8633 83.91 66.7168 82.0818 68.9258 82.0818C71.1094 82.0818 72.9629 83.91 72.9629 86.119C72.9629 88.3279 71.1094 90.1815 68.9258 90.1815ZM104.447 90.1815C102.238 90.1815 100.385 88.3279 100.385 86.119C100.385 83.91 102.238 82.0818 104.447 82.0818C106.656 82.0818 108.51 83.91 108.51 86.119C108.51 88.3279 106.656 90.1815 104.447 90.1815ZM77.7871 110.164C82.2305 110.164 85.9375 106.457 85.9375 102.039C85.9375 97.5955 82.2305 93.9139 77.7871 93.9139C73.3691 93.9139 69.6621 97.5955 69.6621 102.039C69.6621 106.457 73.3691 110.164 77.7871 110.164ZM95.5605 110.164C100.004 110.164 103.686 106.457 103.686 102.039C103.686 97.5955 100.004 93.9139 95.5605 93.9139C91.1426 93.9139 87.4355 97.5955 87.4355 102.039C87.4355 106.457 91.1426 110.164 95.5605 110.164ZM77.7871 106.076C75.6035 106.076 73.75 104.222 73.75 102.039C73.75 99.8553 75.6035 98.0018 77.7871 98.0018C79.9961 98.0018 81.8496 99.8553 81.8496 102.039C81.8496 104.222 79.9961 106.076 77.7871 106.076ZM95.5605 106.076C93.377 106.076 91.5234 104.222 91.5234 102.039C91.5234 99.8553 93.377 98.0018 95.5605 98.0018C97.7695 98.0018 99.623 99.8553 99.623 102.039C99.623 104.222 97.7695 106.076 95.5605 106.076Z" fill="#BD00FF"/>
</svg>
