<svg width="41" height="12" viewBox="0 0 41 12" fill="none" xmlns="http://www.w3.org/2000/svg">
<path d="M4.32227 4.20483C5.34766 4.20483 6.20312 3.35522 6.20312 2.32983C6.20312 1.3103 5.34766 0.454834 4.32227 0.454834C3.30273 0.454834 2.44727 1.3103 2.44727 2.32983C2.44727 3.35522 3.30273 4.20483 4.32227 4.20483ZM8.42383 4.20483C9.44922 4.20483 10.2988 3.35522 10.2988 2.32983C10.2988 1.3103 9.44922 0.454834 8.42383 0.454834C7.4043 0.454834 6.54883 1.3103 6.54883 2.32983C6.54883 3.35522 7.4043 4.20483 8.42383 4.20483ZM4.32227 3.26147C3.81836 3.26147 3.39062 2.83374 3.39062 2.32983C3.39062 1.82593 3.81836 1.39819 4.32227 1.39819C4.83203 1.39819 5.25977 1.82593 5.25977 2.32983C5.25977 2.83374 4.83203 3.26147 4.32227 3.26147ZM8.42383 3.26147C7.91992 3.26147 7.49219 2.83374 7.49219 2.32983C7.49219 1.82593 7.91992 1.39819 8.42383 1.39819C8.93359 1.39819 9.36133 1.82593 9.36133 2.32983C9.36133 2.83374 8.93359 3.26147 8.42383 3.26147ZM6.37305 7.87866C7.39844 7.87866 8.24805 7.02905 8.24805 6.00366C8.24805 4.97827 7.39844 4.12866 6.37305 4.12866C5.35352 4.12866 4.49805 4.97827 4.49805 6.00366C4.49805 7.02905 5.35352 7.87866 6.37305 7.87866ZM2.27734 7.87866C3.29688 7.87866 4.15234 7.02905 4.15234 6.00366C4.15234 4.98413 3.29688 4.12866 2.27734 4.12866C1.25195 4.12866 0.396484 4.98413 0.396484 6.00366C0.396484 7.02905 1.25195 7.87866 2.27734 7.87866ZM10.4746 7.87866C11.5 7.87866 12.3496 7.02905 12.3496 6.00366C12.3496 4.98413 11.5 4.12866 10.4746 4.12866C9.44922 4.12866 8.59961 4.98413 8.59961 6.00366C8.59961 7.02905 9.44922 7.87866 10.4746 7.87866ZM6.37305 6.94116C5.86914 6.94116 5.44141 6.51343 5.44141 6.00366C5.44141 5.4939 5.86914 5.07202 6.37305 5.07202C6.88281 5.07202 7.31055 5.4939 7.31055 6.00366C7.31055 6.51343 6.88281 6.94116 6.37305 6.94116ZM2.27734 6.94116C1.76758 6.94116 1.33984 6.51343 1.33984 6.00366C1.33984 5.4939 1.76758 5.07202 2.27734 5.07202C2.78125 5.07202 3.20898 5.4939 3.20898 6.00366C3.20898 6.51343 2.78125 6.94116 2.27734 6.94116ZM10.4746 6.94116C9.96484 6.94116 9.53711 6.51343 9.53711 6.00366C9.53711 5.4939 9.96484 5.07202 10.4746 5.07202C10.9844 5.07202 11.4121 5.4939 11.4121 6.00366C11.4121 6.51343 10.9844 6.94116 10.4746 6.94116ZM4.32227 11.5525C5.34766 11.5525 6.20312 10.697 6.20312 9.67749C6.20312 8.6521 5.34766 7.80249 4.32227 7.80249C3.30273 7.80249 2.44727 8.6521 2.44727 9.67749C2.44727 10.697 3.30273 11.5525 4.32227 11.5525ZM8.42383 11.5525C9.44922 11.5525 10.2988 10.697 10.2988 9.67749C10.2988 8.6521 9.44922 7.80249 8.42383 7.80249C7.4043 7.80249 6.54883 8.6521 6.54883 9.67749C6.54883 10.697 7.4043 11.5525 8.42383 11.5525ZM4.32227 10.6091C3.81836 10.6091 3.39062 10.1814 3.39062 9.67749C3.39062 9.17358 3.81836 8.74585 4.32227 8.74585C4.83203 8.74585 5.25977 9.17358 5.25977 9.67749C5.25977 10.1814 4.83203 10.6091 4.32227 10.6091ZM8.42383 10.6091C7.91992 10.6091 7.49219 10.1814 7.49219 9.67749C7.49219 9.17358 7.91992 8.74585 8.42383 8.74585C8.93359 8.74585 9.36133 9.17358 9.36133 9.67749C9.36133 10.1814 8.93359 10.6091 8.42383 10.6091Z" fill="#BD00FF"/>
<path d="M18.2676 4.20483C19.293 4.20483 20.1484 3.35522 20.1484 2.32983C20.1484 1.3103 19.293 0.454834 18.2676 0.454834C17.248 0.454834 16.3926 1.3103 16.3926 2.32983C16.3926 3.35522 17.248 4.20483 18.2676 4.20483ZM22.3691 4.20483C23.3945 4.20483 24.2441 3.35522 24.2441 2.32983C24.2441 1.3103 23.3945 0.454834 22.3691 0.454834C21.3496 0.454834 20.4941 1.3103 20.4941 2.32983C20.4941 3.35522 21.3496 4.20483 22.3691 4.20483ZM18.2676 3.26147C17.7637 3.26147 17.3359 2.83374 17.3359 2.32983C17.3359 1.82593 17.7637 1.39819 18.2676 1.39819C18.7773 1.39819 19.2051 1.82593 19.2051 2.32983C19.2051 2.83374 18.7773 3.26147 18.2676 3.26147ZM22.3691 3.26147C21.8652 3.26147 21.4375 2.83374 21.4375 2.32983C21.4375 1.82593 21.8652 1.39819 22.3691 1.39819C22.8789 1.39819 23.3066 1.82593 23.3066 2.32983C23.3066 2.83374 22.8789 3.26147 22.3691 3.26147ZM20.3184 7.87866C21.3438 7.87866 22.1934 7.02905 22.1934 6.00366C22.1934 4.97827 21.3438 4.12866 20.3184 4.12866C19.2988 4.12866 18.4434 4.97827 18.4434 6.00366C18.4434 7.02905 19.2988 7.87866 20.3184 7.87866ZM16.2227 7.87866C17.2422 7.87866 18.0977 7.02905 18.0977 6.00366C18.0977 4.98413 17.2422 4.12866 16.2227 4.12866C15.1973 4.12866 14.3418 4.98413 14.3418 6.00366C14.3418 7.02905 15.1973 7.87866 16.2227 7.87866ZM24.4199 7.87866C25.4453 7.87866 26.2949 7.02905 26.2949 6.00366C26.2949 4.98413 25.4453 4.12866 24.4199 4.12866C23.3945 4.12866 22.5449 4.98413 22.5449 6.00366C22.5449 7.02905 23.3945 7.87866 24.4199 7.87866ZM20.3184 6.94116C19.8145 6.94116 19.3867 6.51343 19.3867 6.00366C19.3867 5.4939 19.8145 5.07202 20.3184 5.07202C20.8281 5.07202 21.2559 5.4939 21.2559 6.00366C21.2559 6.51343 20.8281 6.94116 20.3184 6.94116ZM16.2227 6.94116C15.7129 6.94116 15.2852 6.51343 15.2852 6.00366C15.2852 5.4939 15.7129 5.07202 16.2227 5.07202C16.7266 5.07202 17.1543 5.4939 17.1543 6.00366C17.1543 6.51343 16.7266 6.94116 16.2227 6.94116ZM24.4199 6.94116C23.9102 6.94116 23.4824 6.51343 23.4824 6.00366C23.4824 5.4939 23.9102 5.07202 24.4199 5.07202C24.9297 5.07202 25.3574 5.4939 25.3574 6.00366C25.3574 6.51343 24.9297 6.94116 24.4199 6.94116ZM18.2676 11.5525C19.293 11.5525 20.1484 10.697 20.1484 9.67749C20.1484 8.6521 19.293 7.80249 18.2676 7.80249C17.248 7.80249 16.3926 8.6521 16.3926 9.67749C16.3926 10.697 17.248 11.5525 18.2676 11.5525ZM22.3691 11.5525C23.3945 11.5525 24.2441 10.697 24.2441 9.67749C24.2441 8.6521 23.3945 7.80249 22.3691 7.80249C21.3496 7.80249 20.4941 8.6521 20.4941 9.67749C20.4941 10.697 21.3496 11.5525 22.3691 11.5525ZM18.2676 10.6091C17.7637 10.6091 17.3359 10.1814 17.3359 9.67749C17.3359 9.17358 17.7637 8.74585 18.2676 8.74585C18.7773 8.74585 19.2051 9.17358 19.2051 9.67749C19.2051 10.1814 18.7773 10.6091 18.2676 10.6091ZM22.3691 10.6091C21.8652 10.6091 21.4375 10.1814 21.4375 9.67749C21.4375 9.17358 21.8652 8.74585 22.3691 8.74585C22.8789 8.74585 23.3066 9.17358 23.3066 9.67749C23.3066 10.1814 22.8789 10.6091 22.3691 10.6091Z" fill="#BD00FF"/>
<path d="M32.2129 4.20483C33.2383 4.20483 34.0938 3.35522 34.0938 2.32983C34.0938 1.3103 33.2383 0.454834 32.2129 0.454834C31.1934 0.454834 30.3379 1.3103 30.3379 2.32983C30.3379 3.35522 31.1934 4.20483 32.2129 4.20483ZM36.3145 4.20483C37.3398 4.20483 38.1895 3.35522 38.1895 2.32983C38.1895 1.3103 37.3398 0.454834 36.3145 0.454834C35.2949 0.454834 34.4395 1.3103 34.4395 2.32983C34.4395 3.35522 35.2949 4.20483 36.3145 4.20483ZM32.2129 3.26147C31.709 3.26147 31.2812 2.83374 31.2812 2.32983C31.2812 1.82593 31.709 1.39819 32.2129 1.39819C32.7227 1.39819 33.1504 1.82593 33.1504 2.32983C33.1504 2.83374 32.7227 3.26147 32.2129 3.26147ZM36.3145 3.26147C35.8105 3.26147 35.3828 2.83374 35.3828 2.32983C35.3828 1.82593 35.8105 1.39819 36.3145 1.39819C36.8242 1.39819 37.252 1.82593 37.252 2.32983C37.252 2.83374 36.8242 3.26147 36.3145 3.26147ZM34.2637 7.87866C35.2891 7.87866 36.1387 7.02905 36.1387 6.00366C36.1387 4.97827 35.2891 4.12866 34.2637 4.12866C33.2441 4.12866 32.3887 4.97827 32.3887 6.00366C32.3887 7.02905 33.2441 7.87866 34.2637 7.87866ZM30.168 7.87866C31.1875 7.87866 32.043 7.02905 32.043 6.00366C32.043 4.98413 31.1875 4.12866 30.168 4.12866C29.1426 4.12866 28.2871 4.98413 28.2871 6.00366C28.2871 7.02905 29.1426 7.87866 30.168 7.87866ZM38.3652 7.87866C39.3906 7.87866 40.2402 7.02905 40.2402 6.00366C40.2402 4.98413 39.3906 4.12866 38.3652 4.12866C37.3398 4.12866 36.4902 4.98413 36.4902 6.00366C36.4902 7.02905 37.3398 7.87866 38.3652 7.87866ZM34.2637 6.94116C33.7598 6.94116 33.332 6.51343 33.332 6.00366C33.332 5.4939 33.7598 5.07202 34.2637 5.07202C34.7734 5.07202 35.2012 5.4939 35.2012 6.00366C35.2012 6.51343 34.7734 6.94116 34.2637 6.94116ZM30.168 6.94116C29.6582 6.94116 29.2305 6.51343 29.2305 6.00366C29.2305 5.4939 29.6582 5.07202 30.168 5.07202C30.6719 5.07202 31.0996 5.4939 31.0996 6.00366C31.0996 6.51343 30.6719 6.94116 30.168 6.94116ZM38.3652 6.94116C37.8555 6.94116 37.4277 6.51343 37.4277 6.00366C37.4277 5.4939 37.8555 5.07202 38.3652 5.07202C38.875 5.07202 39.3027 5.4939 39.3027 6.00366C39.3027 6.51343 38.875 6.94116 38.3652 6.94116ZM32.2129 11.5525C33.2383 11.5525 34.0938 10.697 34.0938 9.67749C34.0938 8.6521 33.2383 7.80249 32.2129 7.80249C31.1934 7.80249 30.3379 8.6521 30.3379 9.67749C30.3379 10.697 31.1934 11.5525 32.2129 11.5525ZM36.3145 11.5525C37.3398 11.5525 38.1895 10.697 38.1895 9.67749C38.1895 8.6521 37.3398 7.80249 36.3145 7.80249C35.2949 7.80249 34.4395 8.6521 34.4395 9.67749C34.4395 10.697 35.2949 11.5525 36.3145 11.5525ZM32.2129 10.6091C31.709 10.6091 31.2812 10.1814 31.2812 9.67749C31.2812 9.17358 31.709 8.74585 32.2129 8.74585C32.7227 8.74585 33.1504 9.17358 33.1504 9.67749C33.1504 10.1814 32.7227 10.6091 32.2129 10.6091ZM36.3145 10.6091C35.8105 10.6091 35.3828 10.1814 35.3828 9.67749C35.3828 9.17358 35.8105 8.74585 36.3145 8.74585C36.8242 8.74585 37.252 9.17358 37.252 9.67749C37.252 10.1814 36.8242 10.6091 36.3145 10.6091Z" fill="#BD00FF"/>
</svg>
