<svg width="173" height="111" viewBox="0 0 173 111" fill="none" xmlns="http://www.w3.org/2000/svg">
<path d="M17.1367 16.324C21.5801 16.324 25.2871 12.6424 25.2871 8.19904C25.2871 3.78107 21.5801 0.0740356 17.1367 0.0740356C12.7188 0.0740356 9.01172 3.78107 9.01172 8.19904C9.01172 12.6424 12.7188 16.324 17.1367 16.324ZM34.9102 16.324C39.3535 16.324 43.0352 12.6424 43.0352 8.19904C43.0352 3.78107 39.3535 0.0740356 34.9102 0.0740356C30.4922 0.0740356 26.7852 3.78107 26.7852 8.19904C26.7852 12.6424 30.4922 16.324 34.9102 16.324ZM17.1367 12.2361C14.9531 12.2361 13.0996 10.3826 13.0996 8.19904C13.0996 6.01544 14.9531 4.16193 17.1367 4.16193C19.3457 4.16193 21.1992 6.01544 21.1992 8.19904C21.1992 10.3826 19.3457 12.2361 17.1367 12.2361ZM34.9102 12.2361C32.7266 12.2361 30.873 10.3826 30.873 8.19904C30.873 6.01544 32.7266 4.16193 34.9102 4.16193C37.1191 4.16193 38.9727 6.01544 38.9727 8.19904C38.9727 10.3826 37.1191 12.2361 34.9102 12.2361ZM26.0234 32.244C30.4668 32.244 34.1484 28.5623 34.1484 24.119C34.1484 19.6756 30.4668 15.994 26.0234 15.994C21.6055 15.994 17.8984 19.6756 17.8984 24.119C17.8984 28.5623 21.6055 32.244 26.0234 32.244ZM8.27539 32.244C12.6934 32.244 16.4004 28.5623 16.4004 24.119C16.4004 19.701 12.6934 15.994 8.27539 15.994C3.83203 15.994 0.125 19.701 0.125 24.119C0.125 28.5623 3.83203 32.244 8.27539 32.244ZM43.7969 32.244C48.2402 32.244 51.9219 28.5623 51.9219 24.119C51.9219 19.701 48.2402 15.994 43.7969 15.994C39.3535 15.994 35.6719 19.701 35.6719 24.119C35.6719 28.5623 39.3535 32.244 43.7969 32.244ZM26.0234 28.1815C23.8398 28.1815 21.9863 26.3279 21.9863 24.119C21.9863 21.91 23.8398 20.0818 26.0234 20.0818C28.2324 20.0818 30.0859 21.91 30.0859 24.119C30.0859 26.3279 28.2324 28.1815 26.0234 28.1815ZM8.27539 28.1815C6.06641 28.1815 4.21289 26.3279 4.21289 24.119C4.21289 21.91 6.06641 20.0818 8.27539 20.0818C10.459 20.0818 12.3125 21.91 12.3125 24.119C12.3125 26.3279 10.459 28.1815 8.27539 28.1815ZM43.7969 28.1815C41.5879 28.1815 39.7344 26.3279 39.7344 24.119C39.7344 21.91 41.5879 20.0818 43.7969 20.0818C46.0059 20.0818 47.8594 21.91 47.8594 24.119C47.8594 26.3279 46.0059 28.1815 43.7969 28.1815ZM17.1367 48.1639C21.5801 48.1639 25.2871 44.4568 25.2871 40.0389C25.2871 35.5955 21.5801 31.9139 17.1367 31.9139C12.7188 31.9139 9.01172 35.5955 9.01172 40.0389C9.01172 44.4568 12.7188 48.1639 17.1367 48.1639ZM34.9102 48.1639C39.3535 48.1639 43.0352 44.4568 43.0352 40.0389C43.0352 35.5955 39.3535 31.9139 34.9102 31.9139C30.4922 31.9139 26.7852 35.5955 26.7852 40.0389C26.7852 44.4568 30.4922 48.1639 34.9102 48.1639ZM17.1367 44.076C14.9531 44.076 13.0996 42.2225 13.0996 40.0389C13.0996 37.8553 14.9531 36.0018 17.1367 36.0018C19.3457 36.0018 21.1992 37.8553 21.1992 40.0389C21.1992 42.2225 19.3457 44.076 17.1367 44.076ZM34.9102 44.076C32.7266 44.076 30.873 42.2225 30.873 40.0389C30.873 37.8553 32.7266 36.0018 34.9102 36.0018C37.1191 36.0018 38.9727 37.8553 38.9727 40.0389C38.9727 42.2225 37.1191 44.076 34.9102 44.076Z" fill="#BD00FF"/>
<path d="M77.5664 16.324C82.0098 16.324 85.7168 12.6424 85.7168 8.19904C85.7168 3.78107 82.0098 0.0740356 77.5664 0.0740356C73.1484 0.0740356 69.4414 3.78107 69.4414 8.19904C69.4414 12.6424 73.1484 16.324 77.5664 16.324ZM95.3399 16.324C99.7832 16.324 103.465 12.6424 103.465 8.19904C103.465 3.78107 99.7832 0.0740356 95.3399 0.0740356C90.9219 0.0740356 87.2148 3.78107 87.2148 8.19904C87.2148 12.6424 90.9219 16.324 95.3399 16.324ZM77.5664 12.2361C75.3828 12.2361 73.5293 10.3826 73.5293 8.19904C73.5293 6.01544 75.3828 4.16193 77.5664 4.16193C79.7754 4.16193 81.6289 6.01544 81.6289 8.19904C81.6289 10.3826 79.7754 12.2361 77.5664 12.2361ZM95.3399 12.2361C93.1563 12.2361 91.3027 10.3826 91.3027 8.19904C91.3027 6.01544 93.1563 4.16193 95.3399 4.16193C97.5488 4.16193 99.4024 6.01544 99.4024 8.19904C99.4024 10.3826 97.5488 12.2361 95.3399 12.2361ZM86.4531 32.244C90.8965 32.244 94.5781 28.5623 94.5781 24.119C94.5781 19.6756 90.8965 15.994 86.4531 15.994C82.0352 15.994 78.3281 19.6756 78.3281 24.119C78.3281 28.5623 82.0352 32.244 86.4531 32.244ZM68.7051 32.244C73.123 32.244 76.8301 28.5623 76.8301 24.119C76.8301 19.701 73.123 15.994 68.7051 15.994C64.2617 15.994 60.5547 19.701 60.5547 24.119C60.5547 28.5623 64.2617 32.244 68.7051 32.244ZM104.227 32.244C108.67 32.244 112.352 28.5623 112.352 24.119C112.352 19.701 108.67 15.994 104.227 15.994C99.7832 15.994 96.1016 19.701 96.1016 24.119C96.1016 28.5623 99.7832 32.244 104.227 32.244ZM86.4531 28.1815C84.2695 28.1815 82.416 26.3279 82.416 24.119C82.416 21.91 84.2695 20.0818 86.4531 20.0818C88.6621 20.0818 90.5156 21.91 90.5156 24.119C90.5156 26.3279 88.6621 28.1815 86.4531 28.1815ZM68.7051 28.1815C66.4961 28.1815 64.6426 26.3279 64.6426 24.119C64.6426 21.91 66.4961 20.0818 68.7051 20.0818C70.8887 20.0818 72.7422 21.91 72.7422 24.119C72.7422 26.3279 70.8887 28.1815 68.7051 28.1815ZM104.227 28.1815C102.018 28.1815 100.164 26.3279 100.164 24.119C100.164 21.91 102.018 20.0818 104.227 20.0818C106.436 20.0818 108.289 21.91 108.289 24.119C108.289 26.3279 106.436 28.1815 104.227 28.1815ZM77.5664 48.1639C82.0098 48.1639 85.7168 44.4568 85.7168 40.0389C85.7168 35.5955 82.0098 31.9139 77.5664 31.9139C73.1484 31.9139 69.4414 35.5955 69.4414 40.0389C69.4414 44.4568 73.1484 48.1639 77.5664 48.1639ZM95.3399 48.1639C99.7832 48.1639 103.465 44.4568 103.465 40.0389C103.465 35.5955 99.7832 31.9139 95.3399 31.9139C90.9219 31.9139 87.2148 35.5955 87.2148 40.0389C87.2148 44.4568 90.9219 48.1639 95.3399 48.1639ZM77.5664 44.076C75.3828 44.076 73.5293 42.2225 73.5293 40.0389C73.5293 37.8553 75.3828 36.0018 77.5664 36.0018C79.7754 36.0018 81.6289 37.8553 81.6289 40.0389C81.6289 42.2225 79.7754 44.076 77.5664 44.076ZM95.3399 44.076C93.1563 44.076 91.3027 42.2225 91.3027 40.0389C91.3027 37.8553 93.1563 36.0018 95.3399 36.0018C97.5488 36.0018 99.4024 37.8553 99.4024 40.0389C99.4024 42.2225 97.5488 44.076 95.3399 44.076Z" fill="#BD00FF"/>
<path d="M137.996 16.324C142.439 16.324 146.146 12.6424 146.146 8.19904C146.146 3.78107 142.439 0.0740356 137.996 0.0740356C133.578 0.0740356 129.871 3.78107 129.871 8.19904C129.871 12.6424 133.578 16.324 137.996 16.324ZM155.77 16.324C160.213 16.324 163.895 12.6424 163.895 8.19904C163.895 3.78107 160.213 0.0740356 155.77 0.0740356C151.352 0.0740356 147.645 3.78107 147.645 8.19904C147.645 12.6424 151.352 16.324 155.77 16.324ZM137.996 12.2361C135.812 12.2361 133.959 10.3826 133.959 8.19904C133.959 6.01544 135.812 4.16193 137.996 4.16193C140.205 4.16193 142.059 6.01544 142.059 8.19904C142.059 10.3826 140.205 12.2361 137.996 12.2361ZM155.77 12.2361C153.586 12.2361 151.732 10.3826 151.732 8.19904C151.732 6.01544 153.586 4.16193 155.77 4.16193C157.979 4.16193 159.832 6.01544 159.832 8.19904C159.832 10.3826 157.979 12.2361 155.77 12.2361ZM146.883 32.244C151.326 32.244 155.008 28.5623 155.008 24.119C155.008 19.6756 151.326 15.994 146.883 15.994C142.465 15.994 138.758 19.6756 138.758 24.119C138.758 28.5623 142.465 32.244 146.883 32.244ZM129.135 32.244C133.553 32.244 137.26 28.5623 137.26 24.119C137.26 19.701 133.553 15.994 129.135 15.994C124.691 15.994 120.984 19.701 120.984 24.119C120.984 28.5623 124.691 32.244 129.135 32.244ZM164.656 32.244C169.1 32.244 172.781 28.5623 172.781 24.119C172.781 19.701 169.1 15.994 164.656 15.994C160.213 15.994 156.531 19.701 156.531 24.119C156.531 28.5623 160.213 32.244 164.656 32.244ZM146.883 28.1815C144.699 28.1815 142.846 26.3279 142.846 24.119C142.846 21.91 144.699 20.0818 146.883 20.0818C149.092 20.0818 150.945 21.91 150.945 24.119C150.945 26.3279 149.092 28.1815 146.883 28.1815ZM129.135 28.1815C126.926 28.1815 125.072 26.3279 125.072 24.119C125.072 21.91 126.926 20.0818 129.135 20.0818C131.318 20.0818 133.172 21.91 133.172 24.119C133.172 26.3279 131.318 28.1815 129.135 28.1815ZM164.656 28.1815C162.447 28.1815 160.594 26.3279 160.594 24.119C160.594 21.91 162.447 20.0818 164.656 20.0818C166.865 20.0818 168.719 21.91 168.719 24.119C168.719 26.3279 166.865 28.1815 164.656 28.1815ZM137.996 48.1639C142.439 48.1639 146.146 44.4568 146.146 40.0389C146.146 35.5955 142.439 31.9139 137.996 31.9139C133.578 31.9139 129.871 35.5955 129.871 40.0389C129.871 44.4568 133.578 48.1639 137.996 48.1639ZM155.77 48.1639C160.213 48.1639 163.895 44.4568 163.895 40.0389C163.895 35.5955 160.213 31.9139 155.77 31.9139C151.352 31.9139 147.645 35.5955 147.645 40.0389C147.645 44.4568 151.352 48.1639 155.77 48.1639ZM137.996 44.076C135.812 44.076 133.959 42.2225 133.959 40.0389C133.959 37.8553 135.812 36.0018 137.996 36.0018C140.205 36.0018 142.059 37.8553 142.059 40.0389C142.059 42.2225 140.205 44.076 137.996 44.076ZM155.77 44.076C153.586 44.076 151.732 42.2225 151.732 40.0389C151.732 37.8553 153.586 36.0018 155.77 36.0018C157.979 36.0018 159.832 37.8553 159.832 40.0389C159.832 42.2225 157.979 44.076 155.77 44.076Z" fill="#BD00FF"/>
<path d="M47.3516 78.324C51.7949 78.324 55.502 74.6424 55.502 70.199C55.502 65.7811 51.7949 62.074 47.3516 62.074C42.9336 62.074 39.2266 65.7811 39.2266 70.199C39.2266 74.6424 42.9336 78.324 47.3516 78.324ZM65.125 78.324C69.5684 78.324 73.25 74.6424 73.25 70.199C73.25 65.7811 69.5684 62.074 65.125 62.074C60.707 62.074 57 65.7811 57 70.199C57 74.6424 60.707 78.324 65.125 78.324ZM47.3516 74.2361C45.168 74.2361 43.3145 72.3826 43.3145 70.199C43.3145 68.0154 45.168 66.1619 47.3516 66.1619C49.5605 66.1619 51.4141 68.0154 51.4141 70.199C51.4141 72.3826 49.5605 74.2361 47.3516 74.2361ZM65.125 74.2361C62.9414 74.2361 61.0879 72.3826 61.0879 70.199C61.0879 68.0154 62.9414 66.1619 65.125 66.1619C67.334 66.1619 69.1875 68.0154 69.1875 70.199C69.1875 72.3826 67.334 74.2361 65.125 74.2361ZM56.2383 94.244C60.6816 94.244 64.3633 90.5623 64.3633 86.119C64.3633 81.6756 60.6816 77.994 56.2383 77.994C51.8203 77.994 48.1133 81.6756 48.1133 86.119C48.1133 90.5623 51.8203 94.244 56.2383 94.244ZM38.4902 94.244C42.9082 94.244 46.6152 90.5623 46.6152 86.119C46.6152 81.701 42.9082 77.994 38.4902 77.994C34.0469 77.994 30.3398 81.701 30.3398 86.119C30.3398 90.5623 34.0469 94.244 38.4902 94.244ZM74.0117 94.244C78.4551 94.244 82.1367 90.5623 82.1367 86.119C82.1367 81.701 78.4551 77.994 74.0117 77.994C69.5684 77.994 65.8867 81.701 65.8867 86.119C65.8867 90.5623 69.5684 94.244 74.0117 94.244ZM56.2383 90.1815C54.0547 90.1815 52.2012 88.3279 52.2012 86.119C52.2012 83.91 54.0547 82.0818 56.2383 82.0818C58.4473 82.0818 60.3008 83.91 60.3008 86.119C60.3008 88.3279 58.4473 90.1815 56.2383 90.1815ZM38.4902 90.1815C36.2812 90.1815 34.4277 88.3279 34.4277 86.119C34.4277 83.91 36.2812 82.0818 38.4902 82.0818C40.6738 82.0818 42.5273 83.91 42.5273 86.119C42.5273 88.3279 40.6738 90.1815 38.4902 90.1815ZM74.0117 90.1815C71.8027 90.1815 69.9492 88.3279 69.9492 86.119C69.9492 83.91 71.8027 82.0818 74.0117 82.0818C76.2207 82.0818 78.0742 83.91 78.0742 86.119C78.0742 88.3279 76.2207 90.1815 74.0117 90.1815ZM47.3516 110.164C51.7949 110.164 55.502 106.457 55.502 102.039C55.502 97.5955 51.7949 93.9139 47.3516 93.9139C42.9336 93.9139 39.2266 97.5955 39.2266 102.039C39.2266 106.457 42.9336 110.164 47.3516 110.164ZM65.125 110.164C69.5684 110.164 73.25 106.457 73.25 102.039C73.25 97.5955 69.5684 93.9139 65.125 93.9139C60.707 93.9139 57 97.5955 57 102.039C57 106.457 60.707 110.164 65.125 110.164ZM47.3516 106.076C45.168 106.076 43.3145 104.222 43.3145 102.039C43.3145 99.8553 45.168 98.0018 47.3516 98.0018C49.5605 98.0018 51.4141 99.8553 51.4141 102.039C51.4141 104.222 49.5605 106.076 47.3516 106.076ZM65.125 106.076C62.9414 106.076 61.0879 104.222 61.0879 102.039C61.0879 99.8553 62.9414 98.0018 65.125 98.0018C67.334 98.0018 69.1875 99.8553 69.1875 102.039C69.1875 104.222 67.334 106.076 65.125 106.076Z" fill="#BD00FF"/>
<path d="M107.781 78.324C112.225 78.324 115.932 74.6424 115.932 70.199C115.932 65.7811 112.225 62.074 107.781 62.074C103.363 62.074 99.6563 65.7811 99.6563 70.199C99.6563 74.6424 103.363 78.324 107.781 78.324ZM125.555 78.324C129.998 78.324 133.68 74.6424 133.68 70.199C133.68 65.7811 129.998 62.074 125.555 62.074C121.137 62.074 117.43 65.7811 117.43 70.199C117.43 74.6424 121.137 78.324 125.555 78.324ZM107.781 74.2361C105.598 74.2361 103.744 72.3826 103.744 70.199C103.744 68.0154 105.598 66.1619 107.781 66.1619C109.99 66.1619 111.844 68.0154 111.844 70.199C111.844 72.3826 109.99 74.2361 107.781 74.2361ZM125.555 74.2361C123.371 74.2361 121.518 72.3826 121.518 70.199C121.518 68.0154 123.371 66.1619 125.555 66.1619C127.764 66.1619 129.617 68.0154 129.617 70.199C129.617 72.3826 127.764 74.2361 125.555 74.2361ZM116.668 94.244C121.111 94.244 124.793 90.5623 124.793 86.119C124.793 81.6756 121.111 77.994 116.668 77.994C112.25 77.994 108.543 81.6756 108.543 86.119C108.543 90.5623 112.25 94.244 116.668 94.244ZM98.9199 94.244C103.338 94.244 107.045 90.5623 107.045 86.119C107.045 81.701 103.338 77.994 98.9199 77.994C94.4766 77.994 90.7695 81.701 90.7695 86.119C90.7695 90.5623 94.4766 94.244 98.9199 94.244ZM134.441 94.244C138.885 94.244 142.566 90.5623 142.566 86.119C142.566 81.701 138.885 77.994 134.441 77.994C129.998 77.994 126.316 81.701 126.316 86.119C126.316 90.5623 129.998 94.244 134.441 94.244ZM116.668 90.1815C114.484 90.1815 112.631 88.3279 112.631 86.119C112.631 83.91 114.484 82.0818 116.668 82.0818C118.877 82.0818 120.73 83.91 120.73 86.119C120.73 88.3279 118.877 90.1815 116.668 90.1815ZM98.9199 90.1815C96.7109 90.1815 94.8574 88.3279 94.8574 86.119C94.8574 83.91 96.7109 82.0818 98.9199 82.0818C101.104 82.0818 102.957 83.91 102.957 86.119C102.957 88.3279 101.104 90.1815 98.9199 90.1815ZM134.441 90.1815C132.232 90.1815 130.379 88.3279 130.379 86.119C130.379 83.91 132.232 82.0818 134.441 82.0818C136.65 82.0818 138.504 83.91 138.504 86.119C138.504 88.3279 136.65 90.1815 134.441 90.1815ZM107.781 110.164C112.225 110.164 115.932 106.457 115.932 102.039C115.932 97.5955 112.225 93.9139 107.781 93.9139C103.363 93.9139 99.6563 97.5955 99.6563 102.039C99.6563 106.457 103.363 110.164 107.781 110.164ZM125.555 110.164C129.998 110.164 133.68 106.457 133.68 102.039C133.68 97.5955 129.998 93.9139 125.555 93.9139C121.137 93.9139 117.43 97.5955 117.43 102.039C117.43 106.457 121.137 110.164 125.555 110.164ZM107.781 106.076C105.598 106.076 103.744 104.222 103.744 102.039C103.744 99.8553 105.598 98.0018 107.781 98.0018C109.99 98.0018 111.844 99.8553 111.844 102.039C111.844 104.222 109.99 106.076 107.781 106.076ZM125.555 106.076C123.371 106.076 121.518 104.222 121.518 102.039C121.518 99.8553 123.371 98.0018 125.555 98.0018C127.764 98.0018 129.617 99.8553 129.617 102.039C129.617 104.222 127.764 106.076 125.555 106.076Z" fill="#BD00FF"/>
</svg>
