<svg width="69" height="12" viewBox="0 0 69 12" fill="none" xmlns="http://www.w3.org/2000/svg">
<path d="M4.32227 4.31104C5.34766 4.31104 6.20312 3.46143 6.20312 2.43604C6.20312 1.4165 5.34766 0.561035 4.32227 0.561035C3.30273 0.561035 2.44727 1.4165 2.44727 2.43604C2.44727 3.46143 3.30273 4.31104 4.32227 4.31104ZM8.42383 4.31104C9.44922 4.31104 10.2988 3.46143 10.2988 2.43604C10.2988 1.4165 9.44922 0.561035 8.42383 0.561035C7.4043 0.561035 6.54883 1.4165 6.54883 2.43604C6.54883 3.46143 7.4043 4.31104 8.42383 4.31104ZM4.32227 3.36768C3.81836 3.36768 3.39062 2.93994 3.39062 2.43604C3.39062 1.93213 3.81836 1.50439 4.32227 1.50439C4.83203 1.50439 5.25977 1.93213 5.25977 2.43604C5.25977 2.93994 4.83203 3.36768 4.32227 3.36768ZM8.42383 3.36768C7.91992 3.36768 7.49219 2.93994 7.49219 2.43604C7.49219 1.93213 7.91992 1.50439 8.42383 1.50439C8.93359 1.50439 9.36133 1.93213 9.36133 2.43604C9.36133 2.93994 8.93359 3.36768 8.42383 3.36768ZM6.37305 7.98486C7.39844 7.98486 8.24805 7.13525 8.24805 6.10986C8.24805 5.08447 7.39844 4.23486 6.37305 4.23486C5.35352 4.23486 4.49805 5.08447 4.49805 6.10986C4.49805 7.13525 5.35352 7.98486 6.37305 7.98486ZM2.27734 7.98486C3.29688 7.98486 4.15234 7.13525 4.15234 6.10986C4.15234 5.09033 3.29688 4.23486 2.27734 4.23486C1.25195 4.23486 0.396484 5.09033 0.396484 6.10986C0.396484 7.13525 1.25195 7.98486 2.27734 7.98486ZM10.4746 7.98486C11.5 7.98486 12.3496 7.13525 12.3496 6.10986C12.3496 5.09033 11.5 4.23486 10.4746 4.23486C9.44922 4.23486 8.59961 5.09033 8.59961 6.10986C8.59961 7.13525 9.44922 7.98486 10.4746 7.98486ZM6.37305 7.04736C5.86914 7.04736 5.44141 6.61963 5.44141 6.10986C5.44141 5.6001 5.86914 5.17822 6.37305 5.17822C6.88281 5.17822 7.31055 5.6001 7.31055 6.10986C7.31055 6.61963 6.88281 7.04736 6.37305 7.04736ZM2.27734 7.04736C1.76758 7.04736 1.33984 6.61963 1.33984 6.10986C1.33984 5.6001 1.76758 5.17822 2.27734 5.17822C2.78125 5.17822 3.20898 5.6001 3.20898 6.10986C3.20898 6.61963 2.78125 7.04736 2.27734 7.04736ZM10.4746 7.04736C9.96484 7.04736 9.53711 6.61963 9.53711 6.10986C9.53711 5.6001 9.96484 5.17822 10.4746 5.17822C10.9844 5.17822 11.4121 5.6001 11.4121 6.10986C11.4121 6.61963 10.9844 7.04736 10.4746 7.04736ZM4.32227 11.6587C5.34766 11.6587 6.20312 10.8032 6.20312 9.78369C6.20312 8.7583 5.34766 7.90869 4.32227 7.90869C3.30273 7.90869 2.44727 8.7583 2.44727 9.78369C2.44727 10.8032 3.30273 11.6587 4.32227 11.6587ZM8.42383 11.6587C9.44922 11.6587 10.2988 10.8032 10.2988 9.78369C10.2988 8.7583 9.44922 7.90869 8.42383 7.90869C7.4043 7.90869 6.54883 8.7583 6.54883 9.78369C6.54883 10.8032 7.4043 11.6587 8.42383 11.6587ZM4.32227 10.7153C3.81836 10.7153 3.39062 10.2876 3.39062 9.78369C3.39062 9.27979 3.81836 8.85205 4.32227 8.85205C4.83203 8.85205 5.25977 9.27979 5.25977 9.78369C5.25977 10.2876 4.83203 10.7153 4.32227 10.7153ZM8.42383 10.7153C7.91992 10.7153 7.49219 10.2876 7.49219 9.78369C7.49219 9.27979 7.91992 8.85205 8.42383 8.85205C8.93359 8.85205 9.36133 9.27979 9.36133 9.78369C9.36133 10.2876 8.93359 10.7153 8.42383 10.7153Z" fill="#BD00FF"/>
<path d="M18.2676 4.31104C19.293 4.31104 20.1484 3.46143 20.1484 2.43604C20.1484 1.4165 19.293 0.561035 18.2676 0.561035C17.248 0.561035 16.3926 1.4165 16.3926 2.43604C16.3926 3.46143 17.248 4.31104 18.2676 4.31104ZM22.3691 4.31104C23.3945 4.31104 24.2441 3.46143 24.2441 2.43604C24.2441 1.4165 23.3945 0.561035 22.3691 0.561035C21.3496 0.561035 20.4941 1.4165 20.4941 2.43604C20.4941 3.46143 21.3496 4.31104 22.3691 4.31104ZM18.2676 3.36768C17.7637 3.36768 17.3359 2.93994 17.3359 2.43604C17.3359 1.93213 17.7637 1.50439 18.2676 1.50439C18.7773 1.50439 19.2051 1.93213 19.2051 2.43604C19.2051 2.93994 18.7773 3.36768 18.2676 3.36768ZM22.3691 3.36768C21.8652 3.36768 21.4375 2.93994 21.4375 2.43604C21.4375 1.93213 21.8652 1.50439 22.3691 1.50439C22.8789 1.50439 23.3066 1.93213 23.3066 2.43604C23.3066 2.93994 22.8789 3.36768 22.3691 3.36768ZM20.3184 7.98486C21.3438 7.98486 22.1934 7.13525 22.1934 6.10986C22.1934 5.08447 21.3438 4.23486 20.3184 4.23486C19.2988 4.23486 18.4434 5.08447 18.4434 6.10986C18.4434 7.13525 19.2988 7.98486 20.3184 7.98486ZM16.2227 7.98486C17.2422 7.98486 18.0977 7.13525 18.0977 6.10986C18.0977 5.09033 17.2422 4.23486 16.2227 4.23486C15.1973 4.23486 14.3418 5.09033 14.3418 6.10986C14.3418 7.13525 15.1973 7.98486 16.2227 7.98486ZM24.4199 7.98486C25.4453 7.98486 26.2949 7.13525 26.2949 6.10986C26.2949 5.09033 25.4453 4.23486 24.4199 4.23486C23.3945 4.23486 22.5449 5.09033 22.5449 6.10986C22.5449 7.13525 23.3945 7.98486 24.4199 7.98486ZM20.3184 7.04736C19.8145 7.04736 19.3867 6.61963 19.3867 6.10986C19.3867 5.6001 19.8145 5.17822 20.3184 5.17822C20.8281 5.17822 21.2559 5.6001 21.2559 6.10986C21.2559 6.61963 20.8281 7.04736 20.3184 7.04736ZM16.2227 7.04736C15.7129 7.04736 15.2852 6.61963 15.2852 6.10986C15.2852 5.6001 15.7129 5.17822 16.2227 5.17822C16.7266 5.17822 17.1543 5.6001 17.1543 6.10986C17.1543 6.61963 16.7266 7.04736 16.2227 7.04736ZM24.4199 7.04736C23.9102 7.04736 23.4824 6.61963 23.4824 6.10986C23.4824 5.6001 23.9102 5.17822 24.4199 5.17822C24.9297 5.17822 25.3574 5.6001 25.3574 6.10986C25.3574 6.61963 24.9297 7.04736 24.4199 7.04736ZM18.2676 11.6587C19.293 11.6587 20.1484 10.8032 20.1484 9.78369C20.1484 8.7583 19.293 7.90869 18.2676 7.90869C17.248 7.90869 16.3926 8.7583 16.3926 9.78369C16.3926 10.8032 17.248 11.6587 18.2676 11.6587ZM22.3691 11.6587C23.3945 11.6587 24.2441 10.8032 24.2441 9.78369C24.2441 8.7583 23.3945 7.90869 22.3691 7.90869C21.3496 7.90869 20.4941 8.7583 20.4941 9.78369C20.4941 10.8032 21.3496 11.6587 22.3691 11.6587ZM18.2676 10.7153C17.7637 10.7153 17.3359 10.2876 17.3359 9.78369C17.3359 9.27979 17.7637 8.85205 18.2676 8.85205C18.7773 8.85205 19.2051 9.27979 19.2051 9.78369C19.2051 10.2876 18.7773 10.7153 18.2676 10.7153ZM22.3691 10.7153C21.8652 10.7153 21.4375 10.2876 21.4375 9.78369C21.4375 9.27979 21.8652 8.85205 22.3691 8.85205C22.8789 8.85205 23.3066 9.27979 23.3066 9.78369C23.3066 10.2876 22.8789 10.7153 22.3691 10.7153Z" fill="#BD00FF"/>
<path d="M32.2129 4.31104C33.2383 4.31104 34.0938 3.46143 34.0938 2.43604C34.0938 1.4165 33.2383 0.561035 32.2129 0.561035C31.1934 0.561035 30.3379 1.4165 30.3379 2.43604C30.3379 3.46143 31.1934 4.31104 32.2129 4.31104ZM36.3145 4.31104C37.3398 4.31104 38.1895 3.46143 38.1895 2.43604C38.1895 1.4165 37.3398 0.561035 36.3145 0.561035C35.2949 0.561035 34.4395 1.4165 34.4395 2.43604C34.4395 3.46143 35.2949 4.31104 36.3145 4.31104ZM32.2129 3.36768C31.709 3.36768 31.2812 2.93994 31.2812 2.43604C31.2812 1.93213 31.709 1.50439 32.2129 1.50439C32.7227 1.50439 33.1504 1.93213 33.1504 2.43604C33.1504 2.93994 32.7227 3.36768 32.2129 3.36768ZM36.3145 3.36768C35.8105 3.36768 35.3828 2.93994 35.3828 2.43604C35.3828 1.93213 35.8105 1.50439 36.3145 1.50439C36.8242 1.50439 37.252 1.93213 37.252 2.43604C37.252 2.93994 36.8242 3.36768 36.3145 3.36768ZM34.2637 7.98486C35.2891 7.98486 36.1387 7.13525 36.1387 6.10986C36.1387 5.08447 35.2891 4.23486 34.2637 4.23486C33.2441 4.23486 32.3887 5.08447 32.3887 6.10986C32.3887 7.13525 33.2441 7.98486 34.2637 7.98486ZM30.168 7.98486C31.1875 7.98486 32.043 7.13525 32.043 6.10986C32.043 5.09033 31.1875 4.23486 30.168 4.23486C29.1426 4.23486 28.2871 5.09033 28.2871 6.10986C28.2871 7.13525 29.1426 7.98486 30.168 7.98486ZM38.3652 7.98486C39.3906 7.98486 40.2402 7.13525 40.2402 6.10986C40.2402 5.09033 39.3906 4.23486 38.3652 4.23486C37.3398 4.23486 36.4902 5.09033 36.4902 6.10986C36.4902 7.13525 37.3398 7.98486 38.3652 7.98486ZM34.2637 7.04736C33.7598 7.04736 33.332 6.61963 33.332 6.10986C33.332 5.6001 33.7598 5.17822 34.2637 5.17822C34.7734 5.17822 35.2012 5.6001 35.2012 6.10986C35.2012 6.61963 34.7734 7.04736 34.2637 7.04736ZM30.168 7.04736C29.6582 7.04736 29.2305 6.61963 29.2305 6.10986C29.2305 5.6001 29.6582 5.17822 30.168 5.17822C30.6719 5.17822 31.0996 5.6001 31.0996 6.10986C31.0996 6.61963 30.6719 7.04736 30.168 7.04736ZM38.3652 7.04736C37.8555 7.04736 37.4277 6.61963 37.4277 6.10986C37.4277 5.6001 37.8555 5.17822 38.3652 5.17822C38.875 5.17822 39.3027 5.6001 39.3027 6.10986C39.3027 6.61963 38.875 7.04736 38.3652 7.04736ZM32.2129 11.6587C33.2383 11.6587 34.0938 10.8032 34.0938 9.78369C34.0938 8.7583 33.2383 7.90869 32.2129 7.90869C31.1934 7.90869 30.3379 8.7583 30.3379 9.78369C30.3379 10.8032 31.1934 11.6587 32.2129 11.6587ZM36.3145 11.6587C37.3398 11.6587 38.1895 10.8032 38.1895 9.78369C38.1895 8.7583 37.3398 7.90869 36.3145 7.90869C35.2949 7.90869 34.4395 8.7583 34.4395 9.78369C34.4395 10.8032 35.2949 11.6587 36.3145 11.6587ZM32.2129 10.7153C31.709 10.7153 31.2812 10.2876 31.2812 9.78369C31.2812 9.27979 31.709 8.85205 32.2129 8.85205C32.7227 8.85205 33.1504 9.27979 33.1504 9.78369C33.1504 10.2876 32.7227 10.7153 32.2129 10.7153ZM36.3145 10.7153C35.8105 10.7153 35.3828 10.2876 35.3828 9.78369C35.3828 9.27979 35.8105 8.85205 36.3145 8.85205C36.8242 8.85205 37.252 9.27979 37.252 9.78369C37.252 10.2876 36.8242 10.7153 36.3145 10.7153Z" fill="#BD00FF"/>
<path d="M46.1582 4.31104C47.1836 4.31104 48.0391 3.46143 48.0391 2.43604C48.0391 1.4165 47.1836 0.561035 46.1582 0.561035C45.1387 0.561035 44.2832 1.4165 44.2832 2.43604C44.2832 3.46143 45.1387 4.31104 46.1582 4.31104ZM50.2598 4.31104C51.2852 4.31104 52.1348 3.46143 52.1348 2.43604C52.1348 1.4165 51.2852 0.561035 50.2598 0.561035C49.2402 0.561035 48.3848 1.4165 48.3848 2.43604C48.3848 3.46143 49.2402 4.31104 50.2598 4.31104ZM46.1582 3.36768C45.6543 3.36768 45.2266 2.93994 45.2266 2.43604C45.2266 1.93213 45.6543 1.50439 46.1582 1.50439C46.668 1.50439 47.0957 1.93213 47.0957 2.43604C47.0957 2.93994 46.668 3.36768 46.1582 3.36768ZM50.2598 3.36768C49.7559 3.36768 49.3281 2.93994 49.3281 2.43604C49.3281 1.93213 49.7559 1.50439 50.2598 1.50439C50.7695 1.50439 51.1973 1.93213 51.1973 2.43604C51.1973 2.93994 50.7695 3.36768 50.2598 3.36768ZM48.209 7.98486C49.2344 7.98486 50.084 7.13525 50.084 6.10986C50.084 5.08447 49.2344 4.23486 48.209 4.23486C47.1895 4.23486 46.334 5.08447 46.334 6.10986C46.334 7.13525 47.1895 7.98486 48.209 7.98486ZM44.1133 7.98486C45.1328 7.98486 45.9883 7.13525 45.9883 6.10986C45.9883 5.09033 45.1328 4.23486 44.1133 4.23486C43.0879 4.23486 42.2324 5.09033 42.2324 6.10986C42.2324 7.13525 43.0879 7.98486 44.1133 7.98486ZM52.3105 7.98486C53.3359 7.98486 54.1855 7.13525 54.1855 6.10986C54.1855 5.09033 53.3359 4.23486 52.3105 4.23486C51.2852 4.23486 50.4355 5.09033 50.4355 6.10986C50.4355 7.13525 51.2852 7.98486 52.3105 7.98486ZM48.209 7.04736C47.7051 7.04736 47.2773 6.61963 47.2773 6.10986C47.2773 5.6001 47.7051 5.17822 48.209 5.17822C48.7188 5.17822 49.1465 5.6001 49.1465 6.10986C49.1465 6.61963 48.7188 7.04736 48.209 7.04736ZM44.1133 7.04736C43.6035 7.04736 43.1758 6.61963 43.1758 6.10986C43.1758 5.6001 43.6035 5.17822 44.1133 5.17822C44.6172 5.17822 45.0449 5.6001 45.0449 6.10986C45.0449 6.61963 44.6172 7.04736 44.1133 7.04736ZM52.3105 7.04736C51.8008 7.04736 51.373 6.61963 51.373 6.10986C51.373 5.6001 51.8008 5.17822 52.3105 5.17822C52.8203 5.17822 53.248 5.6001 53.248 6.10986C53.248 6.61963 52.8203 7.04736 52.3105 7.04736ZM46.1582 11.6587C47.1836 11.6587 48.0391 10.8032 48.0391 9.78369C48.0391 8.7583 47.1836 7.90869 46.1582 7.90869C45.1387 7.90869 44.2832 8.7583 44.2832 9.78369C44.2832 10.8032 45.1387 11.6587 46.1582 11.6587ZM50.2598 11.6587C51.2852 11.6587 52.1348 10.8032 52.1348 9.78369C52.1348 8.7583 51.2852 7.90869 50.2598 7.90869C49.2402 7.90869 48.3848 8.7583 48.3848 9.78369C48.3848 10.8032 49.2402 11.6587 50.2598 11.6587ZM46.1582 10.7153C45.6543 10.7153 45.2266 10.2876 45.2266 9.78369C45.2266 9.27979 45.6543 8.85205 46.1582 8.85205C46.668 8.85205 47.0957 9.27979 47.0957 9.78369C47.0957 10.2876 46.668 10.7153 46.1582 10.7153ZM50.2598 10.7153C49.7559 10.7153 49.3281 10.2876 49.3281 9.78369C49.3281 9.27979 49.7559 8.85205 50.2598 8.85205C50.7695 8.85205 51.1973 9.27979 51.1973 9.78369C51.1973 10.2876 50.7695 10.7153 50.2598 10.7153Z" fill="#BD00FF"/>
<path d="M60.1035 4.31104C61.1289 4.31104 61.9844 3.46143 61.9844 2.43604C61.9844 1.4165 61.1289 0.561035 60.1035 0.561035C59.084 0.561035 58.2285 1.4165 58.2285 2.43604C58.2285 3.46143 59.084 4.31104 60.1035 4.31104ZM64.2051 4.31104C65.2305 4.31104 66.0801 3.46143 66.0801 2.43604C66.0801 1.4165 65.2305 0.561035 64.2051 0.561035C63.1855 0.561035 62.3301 1.4165 62.3301 2.43604C62.3301 3.46143 63.1855 4.31104 64.2051 4.31104ZM60.1035 3.36768C59.5996 3.36768 59.1719 2.93994 59.1719 2.43604C59.1719 1.93213 59.5996 1.50439 60.1035 1.50439C60.6133 1.50439 61.041 1.93213 61.041 2.43604C61.041 2.93994 60.6133 3.36768 60.1035 3.36768ZM64.2051 3.36768C63.7012 3.36768 63.2734 2.93994 63.2734 2.43604C63.2734 1.93213 63.7012 1.50439 64.2051 1.50439C64.7148 1.50439 65.1426 1.93213 65.1426 2.43604C65.1426 2.93994 64.7148 3.36768 64.2051 3.36768ZM62.1543 7.98486C63.1797 7.98486 64.0293 7.13525 64.0293 6.10986C64.0293 5.08447 63.1797 4.23486 62.1543 4.23486C61.1348 4.23486 60.2793 5.08447 60.2793 6.10986C60.2793 7.13525 61.1348 7.98486 62.1543 7.98486ZM58.0586 7.98486C59.0781 7.98486 59.9336 7.13525 59.9336 6.10986C59.9336 5.09033 59.0781 4.23486 58.0586 4.23486C57.0332 4.23486 56.1777 5.09033 56.1777 6.10986C56.1777 7.13525 57.0332 7.98486 58.0586 7.98486ZM66.2559 7.98486C67.2812 7.98486 68.1309 7.13525 68.1309 6.10986C68.1309 5.09033 67.2812 4.23486 66.2559 4.23486C65.2305 4.23486 64.3809 5.09033 64.3809 6.10986C64.3809 7.13525 65.2305 7.98486 66.2559 7.98486ZM62.1543 7.04736C61.6504 7.04736 61.2227 6.61963 61.2227 6.10986C61.2227 5.6001 61.6504 5.17822 62.1543 5.17822C62.6641 5.17822 63.0918 5.6001 63.0918 6.10986C63.0918 6.61963 62.6641 7.04736 62.1543 7.04736ZM58.0586 7.04736C57.5488 7.04736 57.1211 6.61963 57.1211 6.10986C57.1211 5.6001 57.5488 5.17822 58.0586 5.17822C58.5625 5.17822 58.9902 5.6001 58.9902 6.10986C58.9902 6.61963 58.5625 7.04736 58.0586 7.04736ZM66.2559 7.04736C65.7461 7.04736 65.3184 6.61963 65.3184 6.10986C65.3184 5.6001 65.7461 5.17822 66.2559 5.17822C66.7656 5.17822 67.1934 5.6001 67.1934 6.10986C67.1934 6.61963 66.7656 7.04736 66.2559 7.04736ZM60.1035 11.6587C61.1289 11.6587 61.9844 10.8032 61.9844 9.78369C61.9844 8.7583 61.1289 7.90869 60.1035 7.90869C59.084 7.90869 58.2285 8.7583 58.2285 9.78369C58.2285 10.8032 59.084 11.6587 60.1035 11.6587ZM64.2051 11.6587C65.2305 11.6587 66.0801 10.8032 66.0801 9.78369C66.0801 8.7583 65.2305 7.90869 64.2051 7.90869C63.1855 7.90869 62.3301 8.7583 62.3301 9.78369C62.3301 10.8032 63.1855 11.6587 64.2051 11.6587ZM60.1035 10.7153C59.5996 10.7153 59.1719 10.2876 59.1719 9.78369C59.1719 9.27979 59.5996 8.85205 60.1035 8.85205C60.6133 8.85205 61.041 9.27979 61.041 9.78369C61.041 10.2876 60.6133 10.7153 60.1035 10.7153ZM64.2051 10.7153C63.7012 10.7153 63.2734 10.2876 63.2734 9.78369C63.2734 9.27979 63.7012 8.85205 64.2051 8.85205C64.7148 8.85205 65.1426 9.27979 65.1426 9.78369C65.1426 10.2876 64.7148 10.7153 64.2051 10.7153Z" fill="#BD00FF"/>
</svg>
