<svg width="101" height="94" viewBox="0 0 101 94" fill="none" xmlns="http://www.w3.org/2000/svg">
<path d="M33.0091 32.3276C41.5876 32.3276 48.7444 25.2198 48.7444 16.6414C48.7444 8.11194 41.5876 0.955078 33.0091 0.955078C24.4797 0.955078 17.3229 8.11194 17.3229 16.6414C17.3229 25.2198 24.4797 32.3276 33.0091 32.3276ZM67.3229 32.3276C75.9013 32.3276 83.0092 25.2198 83.0092 16.6414C83.0092 8.11194 75.9013 0.955078 67.3229 0.955078C58.7935 0.955078 51.6366 8.11194 51.6366 16.6414C51.6366 25.2198 58.7935 32.3276 67.3229 32.3276ZM33.0091 24.4355C28.7935 24.4355 25.215 20.857 25.215 16.6414C25.215 12.4257 28.7935 8.84723 33.0091 8.84723C37.2739 8.84723 40.8523 12.4257 40.8523 16.6414C40.8523 20.857 37.2739 24.4355 33.0091 24.4355ZM67.3229 24.4355C63.1072 24.4355 59.5288 20.857 59.5288 16.6414C59.5288 12.4257 63.1072 8.84723 67.3229 8.84723C71.5876 8.84723 75.166 12.4257 75.166 16.6414C75.166 20.857 71.5876 24.4355 67.3229 24.4355ZM50.166 63.0629C58.7444 63.0629 65.8523 55.9551 65.8523 47.3766C65.8523 38.7982 58.7444 31.6904 50.166 31.6904C41.6366 31.6904 34.4797 38.7982 34.4797 47.3766C34.4797 55.9551 41.6366 63.0629 50.166 63.0629ZM15.9013 63.0629C24.4307 63.0629 31.5876 55.9551 31.5876 47.3766C31.5876 38.8472 24.4307 31.6904 15.9013 31.6904C7.32288 31.6904 0.166016 38.8472 0.166016 47.3766C0.166016 55.9551 7.32288 63.0629 15.9013 63.0629ZM84.4797 63.0629C93.0582 63.0629 100.166 55.9551 100.166 47.3766C100.166 38.8472 93.0582 31.6904 84.4797 31.6904C75.9013 31.6904 68.7935 38.8472 68.7935 47.3766C68.7935 55.9551 75.9013 63.0629 84.4797 63.0629ZM50.166 55.2198C45.9503 55.2198 42.3719 51.6413 42.3719 47.3766C42.3719 43.1119 45.9503 39.5825 50.166 39.5825C54.4307 39.5825 58.0091 43.1119 58.0091 47.3766C58.0091 51.6413 54.4307 55.2198 50.166 55.2198ZM15.9013 55.2198C11.6366 55.2198 8.05817 51.6413 8.05817 47.3766C8.05817 43.1119 11.6366 39.5825 15.9013 39.5825C20.117 39.5825 23.6954 43.1119 23.6954 47.3766C23.6954 51.6413 20.117 55.2198 15.9013 55.2198ZM84.4797 55.2198C80.215 55.2198 76.6366 51.6413 76.6366 47.3766C76.6366 43.1119 80.215 39.5825 84.4797 39.5825C88.7445 39.5825 92.3229 43.1119 92.3229 47.3766C92.3229 51.6413 88.7445 55.2198 84.4797 55.2198ZM33.0091 93.7982C41.5876 93.7982 48.7444 86.6413 48.7444 78.1119C48.7444 69.5335 41.5876 62.4257 33.0091 62.4257C24.4797 62.4257 17.3229 69.5335 17.3229 78.1119C17.3229 86.6413 24.4797 93.7982 33.0091 93.7982ZM67.3229 93.7982C75.9013 93.7982 83.0092 86.6413 83.0092 78.1119C83.0092 69.5335 75.9013 62.4257 67.3229 62.4257C58.7935 62.4257 51.6366 69.5335 51.6366 78.1119C51.6366 86.6413 58.7935 93.7982 67.3229 93.7982ZM33.0091 85.906C28.7935 85.906 25.215 82.3276 25.215 78.1119C25.215 73.8962 28.7935 70.3178 33.0091 70.3178C37.2739 70.3178 40.8523 73.8962 40.8523 78.1119C40.8523 82.3276 37.2739 85.906 33.0091 85.906ZM67.3229 85.906C63.1072 85.906 59.5288 82.3276 59.5288 78.1119C59.5288 73.8962 63.1072 70.3178 67.3229 70.3178C71.5876 70.3178 75.166 73.8962 75.166 78.1119C75.166 82.3276 71.5876 85.906 67.3229 85.906Z" fill="#BD00FF"/>
</svg>
