<svg width="33" height="31" viewBox="0 0 33 31" fill="none" xmlns="http://www.w3.org/2000/svg">
<path d="M11.0098 10.9455C13.7549 10.9455 16.0451 8.67096 16.0451 5.92586C16.0451 3.19645 13.7549 0.90625 11.0098 0.90625C8.28039 0.90625 5.9902 3.19645 5.9902 5.92586C5.9902 8.67096 8.28039 10.9455 11.0098 10.9455ZM21.9902 10.9455C24.7353 10.9455 27.0098 8.67096 27.0098 5.92586C27.0098 3.19645 24.7353 0.90625 21.9902 0.90625C19.2608 0.90625 16.9706 3.19645 16.9706 5.92586C16.9706 8.67096 19.2608 10.9455 21.9902 10.9455ZM11.0098 8.41998C9.66078 8.41998 8.51569 7.27488 8.51569 5.92586C8.51569 4.57684 9.66078 3.43174 11.0098 3.43174C12.3745 3.43174 13.5196 4.57684 13.5196 5.92586C13.5196 7.27488 12.3745 8.41998 11.0098 8.41998ZM21.9902 8.41998C20.6412 8.41998 19.4961 7.27488 19.4961 5.92586C19.4961 4.57684 20.6412 3.43174 21.9902 3.43174C23.3549 3.43174 24.5 4.57684 24.5 5.92586C24.5 7.27488 23.3549 8.41998 21.9902 8.41998ZM16.5 20.7808C19.2451 20.7808 21.5196 18.5063 21.5196 15.7612C21.5196 13.0161 19.2451 10.7415 16.5 10.7415C13.7706 10.7415 11.4804 13.0161 11.4804 15.7612C11.4804 18.5063 13.7706 20.7808 16.5 20.7808ZM5.53529 20.7808C8.26471 20.7808 10.5549 18.5063 10.5549 15.7612C10.5549 13.0317 8.26471 10.7415 5.53529 10.7415C2.7902 10.7415 0.5 13.0317 0.5 15.7612C0.5 18.5063 2.7902 20.7808 5.53529 20.7808ZM27.4804 20.7808C30.2255 20.7808 32.5 18.5063 32.5 15.7612C32.5 13.0317 30.2255 10.7415 27.4804 10.7415C24.7353 10.7415 22.4608 13.0317 22.4608 15.7612C22.4608 18.5063 24.7353 20.7808 27.4804 20.7808ZM16.5 18.271C15.151 18.271 14.0059 17.1259 14.0059 15.7612C14.0059 14.3964 15.151 13.267 16.5 13.267C17.8647 13.267 19.0098 14.3964 19.0098 15.7612C19.0098 17.1259 17.8647 18.271 16.5 18.271ZM5.53529 18.271C4.17059 18.271 3.02549 17.1259 3.02549 15.7612C3.02549 14.3964 4.17059 13.267 5.53529 13.267C6.88431 13.267 8.02941 14.3964 8.02941 15.7612C8.02941 17.1259 6.88431 18.271 5.53529 18.271ZM27.4804 18.271C26.1157 18.271 24.9706 17.1259 24.9706 15.7612C24.9706 14.3964 26.1157 13.267 27.4804 13.267C28.8451 13.267 29.9902 14.3964 29.9902 15.7612C29.9902 17.1259 28.8451 18.271 27.4804 18.271ZM11.0098 30.6161C13.7549 30.6161 16.0451 28.3259 16.0451 25.5964C16.0451 22.8513 13.7549 20.5768 11.0098 20.5768C8.28039 20.5768 5.9902 22.8513 5.9902 25.5964C5.9902 28.3259 8.28039 30.6161 11.0098 30.6161ZM21.9902 30.6161C24.7353 30.6161 27.0098 28.3259 27.0098 25.5964C27.0098 22.8513 24.7353 20.5768 21.9902 20.5768C19.2608 20.5768 16.9706 22.8513 16.9706 25.5964C16.9706 28.3259 19.2608 30.6161 21.9902 30.6161ZM11.0098 28.0906C9.66078 28.0906 8.51569 26.9455 8.51569 25.5964C8.51569 24.2474 9.66078 23.1023 11.0098 23.1023C12.3745 23.1023 13.5196 24.2474 13.5196 25.5964C13.5196 26.9455 12.3745 28.0906 11.0098 28.0906ZM21.9902 28.0906C20.6412 28.0906 19.4961 26.9455 19.4961 25.5964C19.4961 24.2474 20.6412 23.1023 21.9902 23.1023C23.3549 23.1023 24.5 24.2474 24.5 25.5964C24.5 26.9455 23.3549 28.0906 21.9902 28.0906Z" fill="#BD00FF"/>
</svg>
