<svg width="31" height="31" viewBox="0 0 31 31" fill="none" xmlns="http://www.w3.org/2000/svg">
<path d="M15.4726 30.6064C23.6727 30.6064 30.4648 23.8143 30.4648 15.6142C30.4648 7.41408 23.6572 0.606445 15.4571 0.606445C7.257 0.606445 0.464844 7.41408 0.464844 15.6142C0.464844 23.8143 7.27248 30.6064 15.4726 30.6064ZM15.4726 14.7787C13.4612 14.7632 11.8522 13.0613 11.8522 10.8024C11.8522 8.69825 13.4612 6.93445 15.4726 6.93445C17.4839 6.93445 19.0775 8.69825 19.0775 10.8024C19.0775 13.0613 17.4839 14.7942 15.4726 14.7787ZM9.06722 22.9014C8.47928 22.9014 8.20079 22.5146 8.20079 21.9731C8.20079 20.4414 10.5216 16.4342 15.4726 16.4342C20.4236 16.4342 22.7444 20.4414 22.7444 21.9731C22.7444 22.5146 22.4504 22.9014 21.8779 22.9014H9.06722Z" fill="#BD00FF"/>
</svg>
