<svg width="31" height="31" viewBox="0 0 31 31" fill="none" xmlns="http://www.w3.org/2000/svg">
<path d="M15.4882 30.7437C23.6883 30.7437 30.4805 23.9515 30.4805 15.7359C30.4805 7.53581 23.6728 0.743652 15.4727 0.743652C7.27263 0.743652 0.480469 7.53581 0.480469 15.7359C0.480469 23.9515 7.2881 30.7437 15.4882 30.7437ZM15.4882 28.067C8.64963 28.067 3.17258 22.59 3.17258 15.7359C3.17258 8.89734 8.63416 3.40482 15.4727 3.40482C22.3113 3.40482 27.8038 8.89734 27.8193 15.7359C27.8348 22.59 22.3268 28.067 15.4882 28.067ZM15.4882 14.9159C17.5924 14.9314 19.2788 13.1366 19.2788 10.754C19.2788 8.54149 17.5924 6.70033 15.4882 6.70033C13.3686 6.70033 11.6821 8.54149 11.6821 10.754C11.6821 13.1366 13.3686 14.9004 15.4882 14.9159ZM8.75793 23.1779H22.203C22.8064 23.1779 23.1158 22.7602 23.1158 22.2032C23.1158 20.5941 20.6868 16.3857 15.4882 16.3857C10.2896 16.3857 7.86056 20.5941 7.86056 22.2032C7.86056 22.7602 8.15453 23.1779 8.75793 23.1779Z" fill="white"/>
</svg>
