<svg width="31" height="31" viewBox="0 0 31 31" fill="none" xmlns="http://www.w3.org/2000/svg">
<path d="M15.7538 30.7437C23.9539 30.7437 30.7461 23.9515 30.7461 15.7359C30.7461 7.53581 23.9385 0.743652 15.7384 0.743652C7.53825 0.743652 0.746094 7.53581 0.746094 15.7359C0.746094 23.9515 7.55373 30.7437 15.7538 30.7437ZM15.7538 28.067C8.91525 28.067 3.4382 22.59 3.4382 15.7359C3.4382 8.89734 8.89978 3.40482 15.7384 3.40482C22.5769 3.40482 28.0695 8.89734 28.0849 15.7359C28.1004 22.59 22.5924 28.067 15.7538 28.067ZM10.973 15.7514C10.973 14.6684 10.0447 13.74 8.96167 13.74C7.84769 13.74 6.95032 14.6684 6.95032 15.7514C6.95032 16.8344 7.86316 17.7627 8.96167 17.7627C10.0447 17.7627 10.973 16.8344 10.973 15.7514ZM17.7497 15.7514C17.7497 14.6684 16.8214 13.74 15.7384 13.74C14.6399 13.74 13.727 14.6684 13.727 15.7514C13.727 16.8344 14.6553 17.7627 15.7384 17.7627C16.8214 17.7627 17.7497 16.8344 17.7497 15.7514ZM24.5264 15.7514C24.5264 14.6684 23.6136 13.74 22.515 13.74C21.4165 13.74 20.5037 14.6684 20.5037 15.7514C20.5037 16.8344 21.432 17.7627 22.515 17.7627C23.6136 17.7627 24.5264 16.8344 24.5264 15.7514Z" fill="white"/>
</svg>
