<svg width="31" height="31" viewBox="0 0 31 31" fill="none" xmlns="http://www.w3.org/2000/svg">
<path d="M15.6366 30.5908C23.8367 30.5908 30.6289 23.7987 30.6289 15.5831C30.6289 7.38298 23.8213 0.59082 15.6212 0.59082C7.42107 0.59082 0.628906 7.38298 0.628906 15.5831C0.628906 23.7987 7.43654 30.5908 15.6366 30.5908ZM8.47316 13.9895C8.47316 10.8951 11.0105 8.35771 14.1204 8.35771C17.2148 8.35771 19.7522 10.8951 19.7522 13.9895C19.7522 15.1808 19.3808 16.2793 18.7465 17.1767L22.3205 20.7662C22.5371 20.9828 22.6609 21.2613 22.6609 21.5552C22.6609 22.2051 22.2277 22.6537 21.6088 22.6537C21.2684 22.6537 20.9744 22.5454 20.696 22.2669L17.1529 18.7239C16.2865 19.2963 15.2344 19.6212 14.1204 19.6212C11.0105 19.6212 8.47316 17.0993 8.47316 13.9895ZM10.1751 13.9895C10.1751 16.1555 11.9543 17.9348 14.1204 17.9348C16.2555 17.9348 18.0348 16.1555 18.0348 13.9895C18.0348 11.8544 16.2555 10.0751 14.1204 10.0751C11.9543 10.0751 10.1751 11.8544 10.1751 13.9895Z" fill="#BD00FF"/>
</svg>
