<svg width="31" height="31" viewBox="0 0 31 31" fill="none" xmlns="http://www.w3.org/2000/svg">
<path d="M15.2929 30.7437C23.493 30.7437 30.2852 23.9515 30.2852 15.7359C30.2852 7.53581 23.4775 0.743652 15.2774 0.743652C7.07732 0.743652 0.285156 7.53581 0.285156 15.7359C0.285156 23.9515 7.09279 30.7437 15.2929 30.7437ZM15.2929 28.067C8.45432 28.067 2.97727 22.59 2.97727 15.7359C2.97727 8.89734 8.43884 3.40482 15.2774 3.40482C22.116 3.40482 27.6085 8.89734 27.624 15.7359C27.6395 22.59 22.1315 28.067 15.2929 28.067ZM13.7766 19.7741C14.8906 19.7741 15.9427 19.4492 16.8246 18.8767L20.3522 22.4198C20.6307 22.6983 20.9247 22.8066 21.265 22.8066C21.8839 22.8066 22.3171 22.3579 22.3171 21.7081C22.3171 21.4141 22.1934 21.1356 21.9767 20.919L18.4027 17.345C19.0371 16.4322 19.4084 15.3336 19.4084 14.1423C19.4084 11.0479 16.871 8.51054 13.7766 8.51054C10.6668 8.51054 8.12941 11.0479 8.12941 14.1423C8.12941 17.2522 10.6668 19.7741 13.7766 19.7741ZM13.7766 18.0876C11.6106 18.0876 9.83131 16.3084 9.83131 14.1423C9.83131 12.0072 11.6106 10.2279 13.7766 10.2279C15.9118 10.2279 17.691 12.0072 17.691 14.1423C17.691 16.3084 15.9118 18.0876 13.7766 18.0876Z" fill="white"/>
</svg>
