<svg width="31" height="31" viewBox="0 0 31 31" fill="none" xmlns="http://www.w3.org/2000/svg">
<path d="M15.0761 30.5908C23.2762 30.5908 30.0684 23.7987 30.0684 15.5831C30.0684 7.38298 23.2607 0.59082 15.0606 0.59082C6.86052 0.59082 0.0683594 7.38298 0.0683594 15.5831C0.0683594 23.7987 6.87599 30.5908 15.0761 30.5908ZM9.90848 15.5986C9.90848 16.7744 8.88734 17.7956 7.696 17.7956C6.50467 17.7956 5.51447 16.7744 5.51447 15.5986C5.51447 14.4227 6.48919 13.3861 7.696 13.3861C8.88734 13.3861 9.90848 14.4227 9.90848 15.5986ZM17.2576 15.5986C17.2576 16.7744 16.2365 17.7956 15.0606 17.7956C13.8848 17.7956 12.8636 16.7744 12.8636 15.5986C12.8636 14.4227 13.8538 13.3861 15.0606 13.3861C16.2365 13.3861 17.2576 14.4227 17.2576 15.5986ZM24.6068 15.5986C24.6068 16.7744 23.6166 17.7956 22.4098 17.7956C21.2339 17.7956 20.2128 16.7744 20.2128 15.5986C20.2128 14.4227 21.2184 13.3861 22.4098 13.3861C23.6166 13.3861 24.6068 14.4227 24.6068 15.5986Z" fill="#BD00FF"/>
</svg>
