<svg width="31" height="31" viewBox="0 0 31 31" fill="none" xmlns="http://www.w3.org/2000/svg">
<path d="M15.0976 30.5908C23.2977 30.5908 30.0898 23.7987 30.0898 15.5831C30.0898 7.38298 23.2822 0.59082 15.0821 0.59082C6.882 0.59082 0.0898438 7.38298 0.0898438 15.5831C0.0898438 23.7987 6.89748 30.5908 15.0976 30.5908ZM10.6417 8.40413H12.5602C13.2255 8.40413 13.6742 8.85281 13.6742 9.50263C13.6742 10.1524 13.2255 10.6011 12.5602 10.6011H10.9975C10.3477 10.6011 10.0383 10.8951 10.0383 11.5604V13.0921C10.0383 13.7729 9.60506 14.2061 8.95524 14.2061C8.28995 14.2061 7.85673 13.7574 7.85673 13.0921V11.1736C7.85673 9.36338 8.81599 8.40413 10.6417 8.40413ZM19.4452 8.40413C21.2709 8.40413 22.2456 9.36338 22.2456 11.1736V13.0921C22.2456 13.7574 21.7969 14.2061 21.1471 14.2061C20.4818 14.2061 20.0486 13.7729 20.0486 13.0921V11.5604C20.0486 10.8951 19.7546 10.6011 19.0893 10.6011H17.5267C16.8614 10.6011 16.4282 10.1524 16.4282 9.50263C16.4282 8.85281 16.8614 8.40413 17.5267 8.40413H19.4452ZM10.6417 22.793C8.81599 22.793 7.85673 21.8492 7.85673 20.039V18.1205C7.85673 17.4552 8.28995 17.0065 8.95524 17.0065C9.60506 17.0065 10.0383 17.4397 10.0383 18.1205V19.6367C10.0383 20.302 10.3477 20.6114 10.9975 20.6114H12.5602C13.2255 20.6114 13.6742 21.0601 13.6742 21.6945C13.6742 22.3598 13.2255 22.793 12.5602 22.793H10.6417ZM19.4452 22.793H17.5267C16.8614 22.793 16.4282 22.3598 16.4282 21.6945C16.4282 21.0601 16.8614 20.6114 17.5267 20.6114H19.0893C19.7546 20.6114 20.0486 20.302 20.0486 19.6367V18.1205C20.0486 17.4397 20.4818 17.0065 21.1471 17.0065C21.7969 17.0065 22.2456 17.4552 22.2456 18.1205V20.039C22.2456 21.8492 21.2709 22.793 19.4452 22.793Z" fill="#BD00FF"/>
</svg>
