<svg width="31" height="31" viewBox="0 0 31 31" fill="none" xmlns="http://www.w3.org/2000/svg">
<path d="M15.0976 30.7437C23.2977 30.7437 30.0898 23.9515 30.0898 15.7514C30.0898 7.53581 23.2822 0.743652 15.0821 0.743652C6.882 0.743652 0.0898438 7.53581 0.0898438 15.7514C0.0898438 23.9515 6.89748 30.7437 15.0976 30.7437ZM15.0976 28.0825C8.259 28.0825 2.78195 22.59 2.78195 15.7514C2.78195 8.89734 8.24353 3.42029 15.0821 3.42029C21.9207 3.42029 27.4132 8.89734 27.4287 15.7514C27.4441 22.59 21.9362 28.0825 15.0976 28.0825ZM10.6417 8.55696C8.81599 8.55696 7.85673 9.51622 7.85673 11.3264V13.2449C7.85673 13.9102 8.28995 14.3589 8.95524 14.3589C9.60506 14.3589 10.0383 13.9257 10.0383 13.2449V11.7132C10.0383 11.0479 10.3477 10.754 10.9975 10.754H12.5602C13.2255 10.754 13.6742 10.3053 13.6742 9.65546C13.6742 9.00564 13.2255 8.55696 12.5602 8.55696H10.6417ZM19.4452 8.55696H17.5267C16.8614 8.55696 16.4282 9.00564 16.4282 9.65546C16.4282 10.3053 16.8614 10.754 17.5267 10.754H19.0893C19.7546 10.754 20.0486 11.0479 20.0486 11.7132V13.2449C20.0486 13.9257 20.4818 14.3589 21.1471 14.3589C21.7969 14.3589 22.2456 13.9102 22.2456 13.2449V11.3264C22.2456 9.51622 21.2709 8.55696 19.4452 8.55696ZM10.6417 22.9458H12.5602C13.2255 22.9458 13.6742 22.5126 13.6742 21.8473C13.6742 21.213 13.2255 20.7643 12.5602 20.7643H10.9975C10.3477 20.7643 10.0383 20.4548 10.0383 19.7896V18.2733C10.0383 17.5925 9.60506 17.1593 8.95524 17.1593C8.28995 17.1593 7.85673 17.608 7.85673 18.2733V20.1918C7.85673 22.002 8.81599 22.9458 10.6417 22.9458ZM19.4452 22.9458C21.2709 22.9458 22.2456 22.002 22.2456 20.1918V18.2733C22.2456 17.608 21.7969 17.1593 21.1471 17.1593C20.4818 17.1593 20.0486 17.5925 20.0486 18.2733V19.7896C20.0486 20.4548 19.7546 20.7643 19.0893 20.7643H17.5267C16.8614 20.7643 16.4282 21.213 16.4282 21.8473C16.4282 22.5126 16.8614 22.9458 17.5267 22.9458H19.4452Z" fill="white"/>
</svg>
