<svg width="53" height="49" viewBox="0 0 53 49" fill="none" xmlns="http://www.w3.org/2000/svg">
<path d="M17.7461 16.8048C22.1895 16.8048 25.8965 13.1232 25.8965 8.67981C25.8965 4.26184 22.1895 0.55481 17.7461 0.55481C13.3281 0.55481 9.62109 4.26184 9.62109 8.67981C9.62109 13.1232 13.3281 16.8048 17.7461 16.8048ZM35.5195 16.8048C39.9629 16.8048 43.6445 13.1232 43.6445 8.67981C43.6445 4.26184 39.9629 0.55481 35.5195 0.55481C31.1016 0.55481 27.3945 4.26184 27.3945 8.67981C27.3945 13.1232 31.1016 16.8048 35.5195 16.8048ZM17.7461 12.7169C15.5625 12.7169 13.709 10.8634 13.709 8.67981C13.709 6.49622 15.5625 4.6427 17.7461 4.6427C19.9551 4.6427 21.8086 6.49622 21.8086 8.67981C21.8086 10.8634 19.9551 12.7169 17.7461 12.7169ZM35.5195 12.7169C33.3359 12.7169 31.4824 10.8634 31.4824 8.67981C31.4824 6.49622 33.3359 4.6427 35.5195 4.6427C37.7285 4.6427 39.582 6.49622 39.582 8.67981C39.582 10.8634 37.7285 12.7169 35.5195 12.7169ZM8.88477 32.7247C13.3027 32.7247 17.0098 29.0431 17.0098 24.5997C17.0098 20.1818 13.3027 16.4747 8.88477 16.4747C4.44141 16.4747 0.734375 20.1818 0.734375 24.5997C0.734375 29.0431 4.44141 32.7247 8.88477 32.7247ZM44.4063 32.7247C48.8496 32.7247 52.5313 29.0431 52.5313 24.5997C52.5313 20.1818 48.8496 16.4747 44.4063 16.4747C39.9629 16.4747 36.2813 20.1818 36.2813 24.5997C36.2813 29.0431 39.9629 32.7247 44.4063 32.7247ZM8.88477 28.6622C6.67578 28.6622 4.82227 26.8087 4.82227 24.5997C4.82227 22.3907 6.67578 20.5626 8.88477 20.5626C11.0684 20.5626 12.9219 22.3907 12.9219 24.5997C12.9219 26.8087 11.0684 28.6622 8.88477 28.6622ZM44.4063 28.6622C42.1973 28.6622 40.3438 26.8087 40.3438 24.5997C40.3438 22.3907 42.1973 20.5626 44.4063 20.5626C46.6152 20.5626 48.4688 22.3907 48.4688 24.5997C48.4688 26.8087 46.6152 28.6622 44.4063 28.6622ZM17.7461 48.6447C22.1895 48.6447 25.8965 44.9376 25.8965 40.5197C25.8965 36.0763 22.1895 32.3947 17.7461 32.3947C13.3281 32.3947 9.62109 36.0763 9.62109 40.5197C9.62109 44.9376 13.3281 48.6447 17.7461 48.6447ZM35.5195 48.6447C39.9629 48.6447 43.6445 44.9376 43.6445 40.5197C43.6445 36.0763 39.9629 32.3947 35.5195 32.3947C31.1016 32.3947 27.3945 36.0763 27.3945 40.5197C27.3945 44.9376 31.1016 48.6447 35.5195 48.6447ZM17.7461 44.5568C15.5625 44.5568 13.709 42.7032 13.709 40.5197C13.709 38.3361 15.5625 36.4825 17.7461 36.4825C19.9551 36.4825 21.8086 38.3361 21.8086 40.5197C21.8086 42.7032 19.9551 44.5568 17.7461 44.5568ZM35.5195 44.5568C33.3359 44.5568 31.4824 42.7032 31.4824 40.5197C31.4824 38.3361 33.3359 36.4825 35.5195 36.4825C37.7285 36.4825 39.582 38.3361 39.582 40.5197C39.582 42.7032 37.7285 44.5568 35.5195 44.5568Z" fill="#BD00FF"/>
</svg>
