<svg width="32" height="32" viewBox="0 0 32 32" fill="none" xmlns="http://www.w3.org/2000/svg">
<path d="M20.6797 14.3735H28.0801C30.2949 14.3735 31.4023 13.2661 31.4023 10.981V3.72119C31.4023 1.41846 30.2949 0.328613 28.0801 0.328613H20.6797C18.4648 0.328613 17.3574 1.41846 17.3574 3.72119V10.981C17.3574 13.2661 18.4648 14.3735 20.6797 14.3735ZM3.94531 14.3735H11.3457C13.5605 14.3735 14.668 13.2661 14.668 10.981V3.72119C14.668 1.41846 13.5605 0.328613 11.3457 0.328613H3.94531C1.73047 0.328613 0.623047 1.41846 0.623047 3.72119V10.981C0.623047 13.2661 1.73047 14.3735 3.94531 14.3735ZM3.94531 11.9126C3.36523 11.9126 3.06641 11.6138 3.06641 10.9985V3.68604C3.06641 3.0708 3.36523 2.77197 3.94531 2.77197H11.3281C11.9082 2.77197 12.207 3.0708 12.207 3.68604V10.9985C12.207 11.6138 11.9082 11.9126 11.3281 11.9126H3.94531ZM20.6973 11.9126C20.0996 11.9126 19.8008 11.6138 19.8008 10.9985V3.68604C19.8008 3.0708 20.0996 2.77197 20.6973 2.77197H28.0801C28.6602 2.77197 28.959 3.0708 28.959 3.68604V10.9985C28.959 11.6138 28.6602 11.9126 28.0801 11.9126H20.6973ZM6.19531 9.13525H9.07812C9.32422 9.13525 9.42969 9.02979 9.42969 8.73096V5.93604C9.42969 5.67236 9.32422 5.56689 9.07812 5.56689H6.19531C5.94922 5.56689 5.86133 5.67236 5.86133 5.93604V8.73096C5.86133 9.02979 5.94922 9.13525 6.19531 9.13525ZM23.0176 9.13525H25.9004C26.1465 9.13525 26.252 9.02979 26.252 8.73096V5.93604C26.252 5.67236 26.1465 5.56689 25.9004 5.56689H23.0176C22.7715 5.56689 22.6836 5.67236 22.6836 5.93604V8.73096C22.6836 9.02979 22.7715 9.13525 23.0176 9.13525ZM3.94531 31.1079H11.3457C13.5605 31.1079 14.668 30.0005 14.668 27.7153V20.4556C14.668 18.1528 13.5605 17.063 11.3457 17.063H3.94531C1.73047 17.063 0.623047 18.1528 0.623047 20.4556V27.7153C0.623047 30.0005 1.73047 31.1079 3.94531 31.1079ZM18.5 21.4224H21.3828C21.6289 21.4224 21.7344 21.3169 21.7344 21.0181V18.2231C21.7344 17.9595 21.6289 17.854 21.3828 17.854H18.5C18.2539 17.854 18.166 17.9595 18.166 18.2231V21.0181C18.166 21.3169 18.2539 21.4224 18.5 21.4224ZM27.3594 21.4224H30.2422C30.4883 21.4224 30.5938 21.3169 30.5938 21.0181V18.2231C30.5938 17.9595 30.4883 17.854 30.2422 17.854H27.3594C27.0957 17.854 27.0254 17.9595 27.0254 18.2231V21.0181C27.0254 21.3169 27.0957 21.4224 27.3594 21.4224ZM3.94531 28.647C3.36523 28.647 3.06641 28.3481 3.06641 27.7505V20.4204C3.06641 19.8052 3.36523 19.5063 3.94531 19.5063H11.3281C11.9082 19.5063 12.207 19.8052 12.207 20.4204V27.7505C12.207 28.3481 11.9082 28.647 11.3281 28.647H3.94531ZM22.9648 25.8521H25.8477C26.0938 25.8521 26.1992 25.7466 26.1992 25.4478V22.6528C26.1992 22.3892 26.0938 22.2837 25.8477 22.2837H22.9648C22.7188 22.2837 22.6309 22.3892 22.6309 22.6528V25.4478C22.6309 25.7466 22.7188 25.8521 22.9648 25.8521ZM6.19531 25.8696H9.07812C9.32422 25.8696 9.42969 25.7642 9.42969 25.4653V22.6704C9.42969 22.4067 9.32422 22.3013 9.07812 22.3013H6.19531C5.94922 22.3013 5.86133 22.4067 5.86133 22.6704V25.4653C5.86133 25.7642 5.94922 25.8696 6.19531 25.8696ZM18.5 30.2817H21.3828C21.6289 30.2817 21.7344 30.1763 21.7344 29.8774V27.0825C21.7344 26.8188 21.6289 26.7134 21.3828 26.7134H18.5C18.2539 26.7134 18.166 26.8188 18.166 27.0825V29.8774C18.166 30.1763 18.2539 30.2817 18.5 30.2817ZM27.3594 30.2817H30.2422C30.4883 30.2817 30.5938 30.1763 30.5938 29.8774V27.0825C30.5938 26.8188 30.4883 26.7134 30.2422 26.7134H27.3594C27.0957 26.7134 27.0254 26.8188 27.0254 27.0825V29.8774C27.0254 30.1763 27.0957 30.2817 27.3594 30.2817Z" fill="#BD00FF"/>
</svg>
