<svg width="16" height="16" viewBox="0 0 16 16" fill="none" xmlns="http://www.w3.org/2000/svg">
<path d="M6.78125 12.9869C7.92188 12.9869 8.99219 12.6823 9.92969 12.151L12.875 15.1041C13.1797 15.4088 13.6016 15.5573 14.0234 15.5573C14.9375 15.5573 15.6172 14.8541 15.6172 13.9557C15.6172 13.5416 15.4766 13.1354 15.1641 12.8229L12.2422 9.901C12.8359 8.93225 13.1797 7.79944 13.1797 6.5885C13.1797 3.08069 10.2969 0.190063 6.78125 0.190063C3.26562 0.190063 0.382812 3.08069 0.382812 6.5885C0.382812 10.1041 3.26562 12.9869 6.78125 12.9869ZM6.78125 10.7369C4.49219 10.7369 2.63281 8.87756 2.63281 6.5885C2.63281 4.30725 4.49219 2.44006 6.78125 2.44006C9.07031 2.44006 10.9297 4.30725 10.9297 6.5885C10.9297 8.87756 9.07031 10.7369 6.78125 10.7369Z" fill="#8E8E8E"/>
</svg>
