<svg width="34" height="34" viewBox="0 0 34 34" fill="none" xmlns="http://www.w3.org/2000/svg">
<path d="M17.0215 33.0786C25.8203 33.0786 33.1084 25.7905 33.1084 16.9751C33.1084 8.17627 25.8037 0.888184 17.0049 0.888184C8.20605 0.888184 0.917969 8.17627 0.917969 16.9751C0.917969 25.7905 8.22266 33.0786 17.0215 33.0786ZM17.0215 30.2065C9.68359 30.2065 3.80664 24.3296 3.80664 16.9751C3.80664 9.63721 9.66699 3.74365 17.0049 3.74365C24.3428 3.74365 30.2363 9.63721 30.2529 16.9751C30.2695 24.3296 24.3594 30.2065 17.0215 30.2065ZM11.709 23.6157C12.0742 23.6157 12.4062 23.4829 12.6553 23.2173L17.0049 18.8511L21.3711 23.2173C21.6201 23.4663 21.9355 23.6157 22.3174 23.6157C23.0479 23.6157 23.6289 23.0347 23.6289 22.3042C23.6289 21.9224 23.4961 21.6235 23.2305 21.3579L18.8643 17.0083L23.2471 12.6089C23.5127 12.3433 23.6455 12.0444 23.6455 11.6958C23.6455 10.9653 23.0645 10.3843 22.334 10.3843C21.9688 10.3843 21.6865 10.5005 21.4043 10.7827L17.0049 15.1655L12.6221 10.7993C12.373 10.5337 12.0742 10.4175 11.709 10.4175C10.9785 10.4175 10.3975 10.9819 10.3975 11.7124C10.3975 12.061 10.5303 12.3765 10.7793 12.6255L15.1455 17.0083L10.7793 21.3745C10.5303 21.6235 10.3975 21.939 10.3975 22.3042C10.3975 23.0347 10.9785 23.6157 11.709 23.6157Z" fill="#BD00FF"/>
</svg>
