<svg width="34" height="35" viewBox="0 0 34 35" fill="none" xmlns="http://www.w3.org/2000/svg">
<path d="M17.0391 34.1289C26.127 34.1289 33.6328 26.5879 33.6328 17.5C33.6328 8.41211 26.1094 0.888672 17.0215 0.888672C7.93359 0.888672 0.392578 8.41211 0.392578 17.5C0.392578 26.5879 7.95117 34.1289 17.0391 34.1289ZM17.9883 4.1582C19.4648 4.7207 20.8184 6.51367 21.7852 8.99219C20.625 9.20312 19.3594 9.34375 17.9883 9.37891V4.1582ZM12.2402 8.99219C13.207 6.51367 14.5605 4.7207 16.0371 4.1582V9.37891C14.6836 9.34375 13.4004 9.20312 12.2402 8.99219ZM21.5742 4.68555C23.3145 5.30078 24.8965 6.26758 26.2148 7.48047C25.4941 7.88477 24.668 8.23633 23.7539 8.51758C23.1562 7.00586 22.418 5.70508 21.5742 4.68555ZM7.81055 7.48047C9.14648 6.26758 10.7109 5.30078 12.4512 4.68555C11.6074 5.70508 10.8867 7.00586 10.2891 8.51758C9.375 8.23633 8.54883 7.88477 7.81055 7.48047ZM25.3008 16.5156C25.2129 14.2656 24.8789 12.1738 24.3516 10.3281C25.582 9.94141 26.6543 9.4668 27.5684 8.92188C29.2734 11.0137 30.3633 13.6504 30.5742 16.5156H25.3008ZM3.46875 16.5156C3.67969 13.6504 4.76953 11.0137 6.45703 8.92188C7.37109 9.4668 8.46094 9.94141 9.67383 10.3281C9.14648 12.1738 8.8125 14.2656 8.74219 16.5156H3.46875ZM10.7461 16.5156C10.8164 14.4941 11.1328 12.543 11.625 10.8203C12.9961 11.1016 14.4902 11.2773 16.0371 11.3301V16.5156H10.7461ZM17.9883 16.5156V11.3301C19.5527 11.2773 21.0293 11.1016 22.4004 10.8203C22.8926 12.543 23.209 14.4941 23.2969 16.5156H17.9883ZM3.46875 18.4668H8.74219C8.8125 20.752 9.14648 22.8789 9.67383 24.7598C8.47852 25.1289 7.40625 25.6035 6.50977 26.1309C4.76953 24.0215 3.67969 21.3848 3.46875 18.4668ZM10.7461 18.4668H16.0371V23.7578C14.4902 23.8105 12.9961 23.9863 11.625 24.2676C11.1328 22.5098 10.8164 20.541 10.7461 18.4668ZM17.9883 23.7578V18.4668H23.2969C23.2266 20.541 22.9102 22.5098 22.4004 24.2676C21.0293 23.9863 19.5527 23.8105 17.9883 23.7578ZM24.3516 24.7598C24.8965 22.8789 25.2305 20.752 25.3008 18.4668H30.5742C30.3809 21.3848 29.2734 24.0391 27.5508 26.1484C26.6367 25.6035 25.5645 25.1289 24.3516 24.7598ZM12.2402 26.0957C13.4004 25.8848 14.6836 25.7441 16.0371 25.709V30.9121C14.5605 30.3496 13.207 28.5566 12.2402 26.0957ZM17.9883 25.709C19.3594 25.7441 20.625 25.8848 21.7852 26.0957C20.8184 28.5566 19.4648 30.3496 17.9883 30.9121V25.709ZM7.86328 27.5723C8.58398 27.168 9.39258 26.834 10.2891 26.5703C10.8691 28.0293 11.5723 29.2949 12.3809 30.2969C10.6934 29.6816 9.16406 28.75 7.86328 27.5723ZM23.7539 26.5703C24.6504 26.8516 25.4766 27.1855 26.1973 27.5723C24.8789 28.7676 23.3496 29.6992 21.6445 30.3145C22.4531 29.2949 23.1738 28.0293 23.7539 26.5703Z" fill="#BD00FF"/>
</svg>
